<svg id="Layer_1" data-name="Layer 1" xmlns="http://www.w3.org/2000/svg" viewBox="0 0 170.33 170.33"><defs><style>.cls-1{fill:#97d6d4;}.cls-2{fill:none;stroke:#231f20;stroke-miterlimit:10;stroke-width:0.25px;}.cls-3{fill:#bcbec0;}.cls-4,.cls-7{font-size:12px;}.cls-4,.cls-7,.cls-8{fill:#231f20;}.cls-4{font-family:ArialNova-Light, Arial Nova;}.cls-5{letter-spacing:-0.01em;}.cls-6{letter-spacing:-0.01em;}.cls-7,.cls-8{font-family:ArialNova-LightItalic, Arial Nova;font-style:italic;}.cls-8{font-size:7px;}.cls-9{letter-spacing:-0.01em;}.cls-10{letter-spacing:-0.01em;}.cls-11{letter-spacing:0.01em;}.cls-12{letter-spacing:-0.01em;}.cls-13{letter-spacing:0.03em;}.cls-14{letter-spacing:-0.02em;}</style></defs><title>canonicalensemble</title><rect class="cls-1" x="0.13" y="0.13" width="170.08" height="170.08"/><rect class="cls-2" x="0.13" y="0.13" width="170.08" height="170.08"/><rect class="cls-3" x="49.4" y="49.4" width="71.53" height="71.53"/><rect class="cls-2" x="49.4" y="49.4" width="71.53" height="71.53"/><text class="cls-4" transform="translate(53.06 60.38)">s<tspan class="cls-5" x="5.63" y="0">y</tspan><tspan x="11.17" y="0">s</tspan><tspan class="cls-6" x="16.8" y="0">t</tspan><tspan x="20.22" y="0">em</tspan></text><text class="cls-7" transform="translate(106.54 114.14)">E</text><text class="cls-8" transform="translate(113.52 118.14)">n</text><text class="cls-7" transform="translate(91.77 162.18)">E</text><text class="cls-8" transform="translate(98.75 166.17)"><tspan class="cls-9">r</tspan><tspan x="2.29" y="0">es</tspan><tspan class="cls-10" x="9.26" y="0">er</tspan><tspan class="cls-11" x="15.18" y="0">v</tspan><tspan x="18.56" y="0">oir</tspan></text><text class="cls-7" transform="translate(124.77 162.18)"><tspan xml:space="preserve"> = </tspan></text><text class="cls-7" transform="translate(137.79 162.18)">E</text><text class="cls-7" transform="translate(144.78 162.18)"><tspan xml:space="preserve"> - </tspan></text><text class="cls-7" transform="translate(155.06 162.18)">E</text><text class="cls-8" transform="translate(162.05 166.17)">n</text><text class="cls-4" transform="translate(4.01 12.31)"><tspan class="cls-12">r</tspan><tspan x="3.89" y="0">ese</tspan><tspan class="cls-13" x="22.19" y="0">r</tspan><tspan class="cls-14" x="26.6" y="0">v</tspan><tspan x="32.14" y="0">oir</tspan></text></svg>