<svg id="Layer_1" data-name="Layer 1" xmlns="http://www.w3.org/2000/svg" xmlns:xlink="http://www.w3.org/1999/xlink" viewBox="0 0 526.95 380.21"><defs><style>.cls-1,.cls-3,.cls-7{fill:none;}.cls-2{clip-path:url(#clip-path);}.cls-3,.cls-7{stroke:#231f20;stroke-miterlimit:10;}.cls-3{stroke-width:0.25px;}.cls-4{fill:#fff;}.cls-5{clip-path:url(#clip-path-18);}.cls-6{fill:url(#Unnamed_Pattern);}.cls-7{stroke-width:0.75px;}.cls-8{fill:url(#Unnamed_Pattern_2);}.cls-9{fill:url(#Unnamed_Pattern_5);}.cls-10{fill:url(#Unnamed_Pattern_6);}.cls-11{fill:url(#Unnamed_Pattern_8);}.cls-12{fill:url(#Unnamed_Pattern_9);}.cls-13{fill:url(#Unnamed_Pattern_12);}.cls-14{fill:url(#Unnamed_Pattern_13);}.cls-15{fill:url(#Unnamed_Pattern_14);}.cls-16{fill:url(#Unnamed_Pattern_15);}.cls-17{fill:url(#Unnamed_Pattern_16);}</style><clipPath id="clip-path"><rect class="cls-1" width="17.47" height="17.26"/></clipPath><clipPath id="clip-path-18" transform="translate(18.47 30.16)"><rect class="cls-1" x="16.94" y="13.41" width="405.33" height="289.75"/></clipPath><pattern id="Unnamed_Pattern" data-name="Unnamed Pattern" width="17.47" height="17.26" patternTransform="matrix(-0.67, -0.74, -0.74, 0.67, 11999.19, -10781.59)" patternUnits="userSpaceOnUse" viewBox="0 0 17.47 17.26"><rect class="cls-1" width="17.47" height="17.26"/><g class="cls-2"><line class="cls-3" x1="-17.47" y1="4.32" y2="-4.32"/><polygon class="cls-4" points="17.47 -4.32 0.3 -4.32 0 -4.16 0 4.32 17.47 4.32 17.47 -4.32"/><line class="cls-3" y1="4.32" x2="17.47" y2="-4.32"/><line class="cls-3" x1="17.47" y1="4.32" x2="34.94" y2="-4.32"/><line class="cls-3" x1="-17.47" y1="12.95" y2="4.32"/><polygon class="cls-4" points="17.47 4.32 0.3 4.32 0 4.47 0 12.95 17.47 12.95 17.47 4.32"/><line class="cls-3" y1="12.95" x2="17.47" y2="4.32"/><line class="cls-3" x1="17.47" y1="12.95" x2="34.94" y2="4.32"/><line class="cls-3" x1="-17.47" y1="21.58" y2="12.95"/><polygon class="cls-4" points="17.47 12.95 0.3 12.95 0 13.1 0 21.58 17.47 21.58 17.47 12.95"/><line class="cls-3" y1="21.58" x2="17.47" y2="12.95"/><line class="cls-3" x1="17.47" y1="21.58" x2="34.94" y2="12.95"/></g></pattern><pattern id="Unnamed_Pattern_2" data-name="Unnamed Pattern 2" width="17.47" height="17.26" patternTransform="matrix(1, 0, 0, -1, -69.35, 16037.77)" patternUnits="userSpaceOnUse" viewBox="0 0 17.47 17.26"><rect class="cls-1" width="17.47" height="17.26"/><g class="cls-2"><line class="cls-3" x1="-17.47" y1="4.32" y2="-4.32"/><polygon class="cls-4" points="17.47 -4.32 0.3 -4.32 0 -4.16 0 4.32 17.47 4.32 17.47 -4.32"/><line class="cls-3" y1="4.32" x2="17.47" y2="-4.32"/><line class="cls-3" x1="17.47" y1="4.32" x2="34.94" y2="-4.32"/><line class="cls-3" x1="-17.47" y1="12.95" y2="4.32"/><polygon class="cls-4" points="17.47 4.32 0.3 4.32 0 4.47 0 12.95 17.47 12.95 17.47 4.32"/><line class="cls-3" y1="12.95" x2="17.47" y2="4.32"/><line class="cls-3" x1="17.47" y1="12.95" x2="34.94" y2="4.32"/><line class="cls-3" x1="-17.47" y1="21.58" y2="12.95"/><polygon class="cls-4" points="17.47 12.95 0.3 12.95 0 13.1 0 21.58 17.47 21.58 17.47 12.95"/><line class="cls-3" y1="21.58" x2="17.47" y2="12.95"/><line class="cls-3" x1="17.47" y1="21.58" x2="34.94" y2="12.95"/></g></pattern><pattern id="Unnamed_Pattern_5" data-name="Unnamed Pattern 5" width="17.47" height="17.26" patternTransform="matrix(-0.77, 0.64, 0.64, 0.77, -10274.92, -12473.08)" patternUnits="userSpaceOnUse" viewBox="0 0 17.47 17.26"><rect class="cls-1" width="17.47" height="17.26"/><g class="cls-2"><line class="cls-3" x1="-17.47" y1="4.32" y2="-4.32"/><polygon class="cls-4" points="17.47 -4.32 0.3 -4.32 0 -4.16 0 4.32 17.47 4.32 17.47 -4.32"/><line class="cls-3" y1="4.32" x2="17.47" y2="-4.32"/><line class="cls-3" x1="17.47" y1="4.32" x2="34.94" y2="-4.32"/><line class="cls-3" x1="-17.47" y1="12.95" y2="4.32"/><polygon class="cls-4" points="17.47 4.32 0.3 4.32 0 4.47 0 12.95 17.47 12.95 17.47 4.32"/><line class="cls-3" y1="12.95" x2="17.47" y2="4.32"/><line class="cls-3" x1="17.47" y1="12.95" x2="34.94" y2="4.32"/><line class="cls-3" x1="-17.47" y1="21.58" y2="12.95"/><polygon class="cls-4" points="17.47 12.95 0.3 12.95 0 13.1 0 21.58 17.47 21.58 17.47 12.95"/><line class="cls-3" y1="21.58" x2="17.47" y2="12.95"/><line class="cls-3" x1="17.47" y1="21.58" x2="34.94" y2="12.95"/></g></pattern><pattern id="Unnamed_Pattern_6" data-name="Unnamed Pattern 6" width="17.47" height="17.26" patternTransform="matrix(0.31, 0.95, 0.95, -0.31, -15328.62, 4822.45)" patternUnits="userSpaceOnUse" viewBox="0 0 17.47 17.26"><rect class="cls-1" width="17.47" height="17.26"/><g class="cls-2"><line class="cls-3" x1="-17.47" y1="4.32" y2="-4.32"/><polygon class="cls-4" points="17.47 -4.32 0.3 -4.32 0 -4.16 0 4.32 17.47 4.32 17.47 -4.32"/><line class="cls-3" y1="4.32" x2="17.47" y2="-4.32"/><line class="cls-3" x1="17.47" y1="4.32" x2="34.94" y2="-4.32"/><line class="cls-3" x1="-17.47" y1="12.95" y2="4.32"/><polygon class="cls-4" points="17.47 4.32 0.3 4.32 0 4.47 0 12.95 17.47 12.95 17.47 4.32"/><line class="cls-3" y1="12.95" x2="17.47" y2="4.32"/><line class="cls-3" x1="17.47" y1="12.95" x2="34.94" y2="4.32"/><line class="cls-3" x1="-17.47" y1="21.58" y2="12.95"/><polygon class="cls-4" points="17.47 12.95 0.3 12.95 0 13.1 0 21.58 17.47 21.58 17.47 12.95"/><line class="cls-3" y1="21.58" x2="17.47" y2="12.95"/><line class="cls-3" x1="17.47" y1="21.58" x2="34.94" y2="12.95"/></g></pattern><pattern id="Unnamed_Pattern_8" data-name="Unnamed Pattern 8" width="17.47" height="17.26" patternTransform="matrix(-0.85, -0.52, -0.52, 0.85, 8512.98, -13752.65)" patternUnits="userSpaceOnUse" viewBox="0 0 17.47 17.26"><rect class="cls-1" width="17.47" height="17.26"/><g class="cls-2"><line class="cls-3" x1="-17.47" y1="4.32" y2="-4.32"/><polygon class="cls-4" points="17.47 -4.32 0.3 -4.32 0 -4.16 0 4.32 17.47 4.32 17.47 -4.32"/><line class="cls-3" y1="4.32" x2="17.47" y2="-4.32"/><line class="cls-3" x1="17.47" y1="4.32" x2="34.94" y2="-4.32"/><line class="cls-3" x1="-17.47" y1="12.95" y2="4.32"/><polygon class="cls-4" points="17.47 4.32 0.3 4.32 0 4.47 0 12.95 17.47 12.95 17.47 4.32"/><line class="cls-3" y1="12.95" x2="17.47" y2="4.32"/><line class="cls-3" x1="17.47" y1="12.95" x2="34.94" y2="4.32"/><line class="cls-3" x1="-17.47" y1="21.58" y2="12.95"/><polygon class="cls-4" points="17.47 12.95 0.3 12.95 0 13.1 0 21.58 17.47 21.58 17.47 12.95"/><line class="cls-3" y1="21.58" x2="17.47" y2="12.95"/><line class="cls-3" x1="17.47" y1="21.58" x2="34.94" y2="12.95"/></g></pattern><pattern id="Unnamed_Pattern_9" data-name="Unnamed Pattern 9" width="17.47" height="17.26" patternTransform="matrix(0.31, 0.95, 0.95, -0.31, -15318.22, 4822.92)" patternUnits="userSpaceOnUse" viewBox="0 0 17.47 17.26"><rect class="cls-1" width="17.47" height="17.26"/><g class="cls-2"><line class="cls-3" x1="-17.47" y1="4.32" y2="-4.32"/><polygon class="cls-4" points="17.47 -4.32 0.3 -4.32 0 -4.16 0 4.32 17.47 4.32 17.47 -4.32"/><line class="cls-3" y1="4.32" x2="17.47" y2="-4.32"/><line class="cls-3" x1="17.47" y1="4.32" x2="34.94" y2="-4.32"/><line class="cls-3" x1="-17.47" y1="12.95" y2="4.32"/><polygon class="cls-4" points="17.47 4.32 0.3 4.32 0 4.47 0 12.95 17.47 12.95 17.47 4.32"/><line class="cls-3" y1="12.95" x2="17.47" y2="4.32"/><line class="cls-3" x1="17.47" y1="12.95" x2="34.94" y2="4.32"/><line class="cls-3" x1="-17.47" y1="21.58" y2="12.95"/><polygon class="cls-4" points="17.47 12.95 0.3 12.95 0 13.1 0 21.58 17.47 21.58 17.47 12.95"/><line class="cls-3" y1="21.58" x2="17.47" y2="12.95"/><line class="cls-3" x1="17.47" y1="21.58" x2="34.94" y2="12.95"/></g></pattern><pattern id="Unnamed_Pattern_12" data-name="Unnamed Pattern 12" width="17.47" height="17.26" patternTransform="matrix(-0.6, -0.8, -0.8, 0.6, 12928.33, -9709.63)" patternUnits="userSpaceOnUse" viewBox="0 0 17.47 17.26"><rect class="cls-1" width="17.47" height="17.26"/><g class="cls-2"><line class="cls-3" x1="-17.47" y1="4.32" y2="-4.32"/><polygon class="cls-4" points="17.47 -4.32 0.3 -4.32 0 -4.16 0 4.32 17.47 4.32 17.47 -4.32"/><line class="cls-3" y1="4.32" x2="17.47" y2="-4.32"/><line class="cls-3" x1="17.47" y1="4.32" x2="34.94" y2="-4.32"/><line class="cls-3" x1="-17.47" y1="12.95" y2="4.32"/><polygon class="cls-4" points="17.47 4.32 0.3 4.32 0 4.47 0 12.95 17.47 12.95 17.47 4.32"/><line class="cls-3" y1="12.95" x2="17.47" y2="4.32"/><line class="cls-3" x1="17.47" y1="12.95" x2="34.94" y2="4.32"/><line class="cls-3" x1="-17.47" y1="21.58" y2="12.95"/><polygon class="cls-4" points="17.47 12.95 0.3 12.95 0 13.1 0 21.58 17.47 21.58 17.47 12.95"/><line class="cls-3" y1="21.58" x2="17.47" y2="12.95"/><line class="cls-3" x1="17.47" y1="21.58" x2="34.94" y2="12.95"/></g></pattern><pattern id="Unnamed_Pattern_13" data-name="Unnamed Pattern 13" width="17.47" height="17.26" patternTransform="matrix(0.95, 0.33, 0.33, -0.95, -5324.82, 15132.83)" patternUnits="userSpaceOnUse" viewBox="0 0 17.47 17.26"><rect class="cls-1" width="17.47" height="17.26"/><g class="cls-2"><line class="cls-3" x1="-17.47" y1="4.32" y2="-4.32"/><polygon class="cls-4" points="17.47 -4.32 0.3 -4.32 0 -4.16 0 4.32 17.47 4.32 17.47 -4.32"/><line class="cls-3" y1="4.32" x2="17.47" y2="-4.32"/><line class="cls-3" x1="17.47" y1="4.32" x2="34.94" y2="-4.32"/><line class="cls-3" x1="-17.47" y1="12.95" y2="4.32"/><polygon class="cls-4" points="17.47 4.32 0.3 4.32 0 4.47 0 12.95 17.47 12.95 17.47 4.32"/><line class="cls-3" y1="12.95" x2="17.47" y2="4.32"/><line class="cls-3" x1="17.47" y1="12.95" x2="34.94" y2="4.32"/><line class="cls-3" x1="-17.47" y1="21.58" y2="12.95"/><polygon class="cls-4" points="17.47 12.95 0.3 12.95 0 13.1 0 21.58 17.47 21.58 17.47 12.95"/><line class="cls-3" y1="21.58" x2="17.47" y2="12.95"/><line class="cls-3" x1="17.47" y1="21.58" x2="34.94" y2="12.95"/></g></pattern><pattern id="Unnamed_Pattern_14" data-name="Unnamed Pattern 14" width="17.47" height="17.26" patternTransform="matrix(-0.77, 0.64, 0.64, 0.77, -10285.92, -12480.5)" patternUnits="userSpaceOnUse" viewBox="0 0 17.47 17.26"><rect class="cls-1" width="17.47" height="17.26"/><g class="cls-2"><line class="cls-3" x1="-17.47" y1="4.32" y2="-4.32"/><polygon class="cls-4" points="17.47 -4.32 0.3 -4.32 0 -4.16 0 4.32 17.47 4.32 17.47 -4.32"/><line class="cls-3" y1="4.32" x2="17.47" y2="-4.32"/><line class="cls-3" x1="17.47" y1="4.32" x2="34.94" y2="-4.32"/><line class="cls-3" x1="-17.47" y1="12.95" y2="4.32"/><polygon class="cls-4" points="17.47 4.32 0.3 4.32 0 4.47 0 12.95 17.47 12.95 17.47 4.32"/><line class="cls-3" y1="12.95" x2="17.47" y2="4.32"/><line class="cls-3" x1="17.47" y1="12.95" x2="34.94" y2="4.32"/><line class="cls-3" x1="-17.47" y1="21.58" y2="12.95"/><polygon class="cls-4" points="17.47 12.95 0.3 12.95 0 13.1 0 21.58 17.47 21.58 17.47 12.95"/><line class="cls-3" y1="21.58" x2="17.47" y2="12.95"/><line class="cls-3" x1="17.47" y1="21.58" x2="34.94" y2="12.95"/></g></pattern><pattern id="Unnamed_Pattern_15" data-name="Unnamed Pattern 15" width="17.47" height="17.26" patternTransform="matrix(0.83, 0, 0, -1, -44.85, 16044.82)" patternUnits="userSpaceOnUse" viewBox="0 0 17.47 17.26"><rect class="cls-1" width="17.47" height="17.26"/><g class="cls-2"><line class="cls-3" x1="-17.47" y1="4.32" y2="-4.32"/><polygon class="cls-4" points="17.47 -4.32 0.3 -4.32 0 -4.16 0 4.32 17.47 4.32 17.47 -4.32"/><line class="cls-3" y1="4.32" x2="17.47" y2="-4.32"/><line class="cls-3" x1="17.47" y1="4.32" x2="34.94" y2="-4.32"/><line class="cls-3" x1="-17.47" y1="12.95" y2="4.32"/><polygon class="cls-4" points="17.47 4.32 0.3 4.32 0 4.47 0 12.95 17.47 12.95 17.47 4.32"/><line class="cls-3" y1="12.95" x2="17.47" y2="4.32"/><line class="cls-3" x1="17.47" y1="12.95" x2="34.94" y2="4.32"/><line class="cls-3" x1="-17.47" y1="21.58" y2="12.95"/><polygon class="cls-4" points="17.47 12.95 0.3 12.95 0 13.1 0 21.58 17.47 21.58 17.47 12.95"/><line class="cls-3" y1="21.58" x2="17.47" y2="12.95"/><line class="cls-3" x1="17.47" y1="21.58" x2="34.94" y2="12.95"/></g></pattern><pattern id="Unnamed_Pattern_16" data-name="Unnamed Pattern 16" width="17.47" height="17.26" patternTransform="matrix(0.95, 0.33, 0.33, -0.95, -5306.94, 15124.83)" patternUnits="userSpaceOnUse" viewBox="0 0 17.47 17.26"><rect class="cls-1" width="17.47" height="17.26"/><g class="cls-2"><line class="cls-3" x1="-17.47" y1="4.32" y2="-4.32"/><polygon class="cls-4" points="17.47 -4.32 0.3 -4.32 0 -4.16 0 4.32 17.47 4.32 17.47 -4.32"/><line class="cls-3" y1="4.32" x2="17.47" y2="-4.32"/><line class="cls-3" x1="17.47" y1="4.32" x2="34.94" y2="-4.32"/><line class="cls-3" x1="-17.47" y1="12.95" y2="4.32"/><polygon class="cls-4" points="17.47 4.32 0.3 4.32 0 4.47 0 12.95 17.47 12.95 17.47 4.32"/><line class="cls-3" y1="12.95" x2="17.47" y2="4.32"/><line class="cls-3" x1="17.47" y1="12.95" x2="34.94" y2="4.32"/><line class="cls-3" x1="-17.47" y1="21.58" y2="12.95"/><polygon class="cls-4" points="17.47 12.95 0.3 12.95 0 13.1 0 21.58 17.47 21.58 17.47 12.95"/><line class="cls-3" y1="21.58" x2="17.47" y2="12.95"/><line class="cls-3" x1="17.47" y1="21.58" x2="34.94" y2="12.95"/></g></pattern></defs><title>crystaldomains_white</title><g class="cls-5"><path class="cls-6" d="M246,261.88c-28.26-1.76-73.2,3.59-76.85,20.59-3.09,14.4,23.58,36.64,50.69,44.42,35.37,10.17,48.45-10.89,86-1.2,32.26,8.33,44.07,29.42,56.21,22.68,10.78-6,13.33-29.21,4.63-44-6.11-10.36-20.78-14.79-49.88-23.23-43.48-12.62-65.33-18.93-70.79-19.27" transform="translate(18.47 30.16)"/><path class="cls-7" d="M246,261.88c-28.26-1.76-73.2,3.59-76.85,20.59-3.09,14.4,23.58,36.64,50.69,44.42,35.37,10.17,48.45-10.89,86-1.2,32.26,8.33,44.07,29.42,56.21,22.68,10.78-6,13.33-29.21,4.63-44-6.11-10.36-20.78-14.79-49.88-23.23C273.33,268.53,251.48,262.22,246,261.88Z" transform="translate(18.47 30.16)"/><path class="cls-8" d="M255.18-16.94c-13.87,8.18-22.28,26.87-18,39.18s26.59,16.93,70.94,25.41c37.63,7.19,55.47,7.4,69.88,6.35,22.62-1.65,39-3.09,47.65-15.88,7.21-10.66,8.3-28.07,0-37.06-11.24-12.18-30.51,1-65.65,1.06-56.82.09-79-34.27-104.82-19.06" transform="translate(18.47 30.16)"/><path class="cls-7" d="M255.18-16.94c-13.87,8.18-22.28,26.87-18,39.18s26.59,16.93,70.94,25.41c37.63,7.19,55.47,7.4,69.88,6.35,22.62-1.65,39-3.09,47.65-15.88,7.21-10.66,8.3-28.07,0-37.06-11.24-12.18-30.51,1-65.65,1.06C303.18,2.21,281-32.15,255.18-16.94Z" transform="translate(18.47 30.16)"/><path class="cls-8" d="M190.59,4.24a43.29,43.29,0,0,0-14.12,9.17c-12.29,12.32-12.69,29.21-12.71,31.06-.18,20.86,15.41,23.52,25.42,56.47,3.91,12.88,2.84,16.8,7.76,21.18,9.21,8.19,23.25,3.62,48.71-1.41,48.74-9.64,64.25-6.15,66.35-14.12,3.1-11.77-30.8-19-42.35-52.24-7-20.07,2-27.28-7.06-39.53C248.21-4.67,212-4.81,190.59,4.24" transform="translate(18.47 30.16)"/><path class="cls-7" d="M190.59,4.24a43.29,43.29,0,0,0-14.12,9.17c-12.29,12.32-12.69,29.21-12.71,31.06-.18,20.86,15.41,23.52,25.42,56.47,3.91,12.88,2.84,16.8,7.76,21.18,9.21,8.19,23.25,3.62,48.71-1.41,48.74-9.64,64.25-6.15,66.35-14.12,3.1-11.77-30.8-19-42.35-52.24-7-20.07,2-27.28-7.06-39.53C248.21-4.67,212-4.81,190.59,4.24Z" transform="translate(18.47 30.16)"/><path class="cls-8" d="M388.24,225.88c-25.2,7.76-46.78-6-52.95-9.88-7.25-4.61-27.13-17.25-29.64-37.41-2.6-20.81,16.15-26.83,19.06-58.59,1.65-18-3.6-24.77,2.11-30.35,5.28-5.15,13.38-3,55.77,7.76,30.88,7.81,35,8.78,39.53,14.12,8.47,10,7.75,22.9,6.35,48-1.13,20.23-1.71,30.69-9.18,42.35-2.65,4.15-12.45,18.27-31.05,24" transform="translate(18.47 30.16)"/><path class="cls-7" d="M388.24,225.88c-25.2,7.76-46.78-6-52.95-9.88-7.25-4.61-27.13-17.25-29.64-37.41-2.6-20.81,16.15-26.83,19.06-58.59,1.65-18-3.6-24.77,2.11-30.35,5.28-5.15,13.38-3,55.77,7.76,30.88,7.81,35,8.78,39.53,14.12,8.47,10,7.75,22.9,6.35,48-1.13,20.23-1.71,30.69-9.18,42.35C416.64,206,406.84,220.15,388.24,225.88Z" transform="translate(18.47 30.16)"/><path class="cls-9" d="M98.82,153.88c5-18.29-37.91-38.91-33.88-49.41,2.83-7.36,24.94.15,63.53-2.82,39.51-3.05,43.41-13,62.82-7.06,15.38,4.71,12.46,10.82,49.42,34.59,18.07,11.62,23.71,13.33,26.82,21.17,6.13,15.43-4.43,37.18-19.06,48.71-15.65,12.33-33.73,11.05-69.88,8.47-3.7-.26-31.6-2.47-64.94-15.53-25.53-10-28.93-16.44-28.94-20.47,0-7.51,11.7-8.79,14.11-17.65" transform="translate(18.47 30.16)"/><path class="cls-7" d="M98.82,153.88c5-18.29-37.91-38.91-33.88-49.41,2.83-7.36,24.94.15,63.53-2.82,39.51-3.05,43.41-13,62.82-7.06,15.38,4.71,12.46,10.82,49.42,34.59,18.07,11.62,23.71,13.33,26.82,21.17,6.13,15.43-4.43,37.18-19.06,48.71-15.65,12.33-33.73,11.05-69.88,8.47-3.7-.26-31.6-2.47-64.94-15.53-25.53-10-28.93-16.44-28.94-20.47C84.68,164,96.41,162.74,98.82,153.88Z" transform="translate(18.47 30.16)"/><path class="cls-10" d="M83.29.71C75,3.27,69,11.67,67.06,19.06c-3.46,13.39,7.87,18.86,5.65,34.59-1.69,12-8.91,13.57-8.47,24,.4,9.7,7,16.64,12,21.88,17.38,18.26,40.47,21.55,43.05,21.88,29.49,3.78,65.71-10.47,68.48-28.94C190.09,76.9,167,69.21,169.41,50.12c2.07-16.42,20.42-20.93,18.36-32.47C186,7.61,170.09-.09,156.71,0c-16.15.11-18.28,11.48-33.89,12C104,12.62,97.17-3.59,83.29.71" transform="translate(18.47 30.16)"/><path class="cls-7" d="M83.29.71C75,3.27,69,11.67,67.06,19.06c-3.46,13.39,7.87,18.86,5.65,34.59-1.69,12-8.91,13.57-8.47,24,.4,9.7,7,16.64,12,21.88,17.38,18.26,40.47,21.55,43.05,21.88,29.49,3.78,65.71-10.47,68.48-28.94C190.09,76.9,167,69.21,169.41,50.12c2.07-16.42,20.42-20.93,18.36-32.47C186,7.61,170.09-.09,156.71,0c-16.15.11-18.28,11.48-33.89,12C104,12.62,97.17-3.59,83.29.71Z" transform="translate(18.47 30.16)"/><path class="cls-9" d="M295.76,10.59c-15-1.84-32.67,8.3-38.11,22.59-8.18,21.44,12.79,48.28,33.17,59.29s28.19-.21,64.24,9.88c27.59,7.73,34.05,17.39,46.59,12.71,20-7.46,24.3-39.75,24.7-43.06,1.34-11,3.2-26.38-5.64-35.29-18.63-18.77-59.13,16.8-93.89-3.53-15.1-8.84-16.41-20.8-31.06-22.59" transform="translate(18.47 30.16)"/><path class="cls-7" d="M295.76,10.59c-15-1.84-32.67,8.3-38.11,22.59-8.18,21.44,12.79,48.28,33.17,59.29s28.19-.21,64.24,9.88c27.59,7.73,34.05,17.39,46.59,12.71,20-7.46,24.3-39.75,24.7-43.06,1.34-11,3.2-26.38-5.64-35.29-18.63-18.77-59.13,16.8-93.89-3.53C311.72,24.34,310.41,12.38,295.76,10.59Z" transform="translate(18.47 30.16)"/><path class="cls-11" d="M371.61,51.94c7,39.17,36.83,41.49,50.85,83.58,9.17,27.5.66,39.15,13,50.63,19,17.74,63.05,12,71.43-6.31,7-15.32-16.56-26.94-39.71-75.43C443.32,54.5,450.31,29.15,425,14c-13.9-8.31-35.06-12-46.39-2.33-12.31,10.58-8.29,33.05-7,40.25" transform="translate(18.47 30.16)"/><path class="cls-7" d="M371.61,51.94c7,39.17,36.83,41.49,50.85,83.58,9.17,27.5.66,39.15,13,50.63,19,17.74,63.05,12,71.43-6.31,7-15.32-16.56-26.94-39.71-75.43C443.32,54.5,450.31,29.15,425,14c-13.9-8.31-35.06-12-46.39-2.33C366.3,22.27,370.32,44.74,371.61,51.94Z" transform="translate(18.47 30.16)"/><path class="cls-12" d="M244.71,102.82c-10.68,6.53-25.16,15.38-27.53,30.36-1.22,7.67,1.32,13.28,10.58,31.06,17.69,33.94,26.68,51,33.89,54.35,21.67,10.14,47.09-4.86,50.82-7.06,23.17-13.68,30.32-37.14,36-55.77,4.35-14.27,8.22-27.65,2.12-41.64-5.67-13-16.85-19.46-21.18-21.88-35.17-19.71-78.88,7-84.7,10.58" transform="translate(18.47 30.16)"/><path class="cls-7" d="M244.71,102.82c-10.68,6.53-25.16,15.38-27.53,30.36-1.22,7.67,1.32,13.28,10.58,31.06,17.69,33.94,26.68,51,33.89,54.35,21.67,10.14,47.09-4.86,50.82-7.06,23.17-13.68,30.32-37.14,36-55.77,4.35-14.27,8.22-27.65,2.12-41.64-5.67-13-16.85-19.46-21.18-21.88C294.24,72.53,250.53,99.26,244.71,102.82Z" transform="translate(18.47 30.16)"/><path class="cls-10" d="M148.24,184.24c8.25-4.1,12.09,1.85,38.11,5.64,39.21,5.71,52-4.67,65.11,6.63,10.69,9.2,3.35,17.07,17.48,35.73,12.18,16.07,24.14,18.82,24,28.23-.17,11.37-17.78,19.57-19.76,20.47-25.53,11.56-40.83-7.71-82.59-5.65-27.28,1.35-32.6,10.16-43.06,4.24-25.44-14.4-23.57-83.25.71-95.29" transform="translate(18.47 30.16)"/><path class="cls-7" d="M148.24,184.24c8.25-4.1,12.09,1.85,38.11,5.64,39.21,5.71,52-4.67,65.11,6.63,10.69,9.2,3.35,17.07,17.48,35.73,12.18,16.07,24.14,18.82,24,28.23-.17,11.37-17.78,19.57-19.76,20.47-25.53,11.56-40.83-7.71-82.59-5.65-27.28,1.35-32.6,10.16-43.06,4.24C122.09,265.13,124,196.28,148.24,184.24Z" transform="translate(18.47 30.16)"/><path class="cls-8" d="M60,129.88c9.2-9.85,34.25-6.58,46.59,6.36,9.13,9.57,3.6,16.38,11.29,33.17,12.89,28.13,37.32,28.43,40.24,50.12,1.94,14.41-7.33,25.5-8.47,26.82-14.06,16.3-42.18,15.26-60,4.94a53.32,53.32,0,0,1-18.36-18.35c-8.9-14.74-5.24-24.59-7.76-53.65-3-34.62-10.1-42.37-3.53-49.41" transform="translate(18.47 30.16)"/><path class="cls-7" d="M60,129.88c9.2-9.85,34.25-6.58,46.59,6.36,9.13,9.57,3.6,16.38,11.29,33.17,12.89,28.13,37.32,28.43,40.24,50.12,1.94,14.41-7.33,25.5-8.47,26.82-14.06,16.3-42.18,15.26-60,4.94a53.32,53.32,0,0,1-18.36-18.35c-8.9-14.74-5.24-24.59-7.76-53.65C60.52,144.67,53.43,136.92,60,129.88Z" transform="translate(18.47 30.16)"/><path class="cls-13" d="M1.06,137.65c3.16-19.83,4.87-29.84,11.65-34.94,14.16-10.67,45.52-2,57.17,16.94,8.35,13.56-1.27,19.63,2.12,55.06,2.42,25.33,8.37,33,7.41,58.23-.61,16.07-.92,24.1-6.35,30.71C56.55,283.7,4.44,278.83-9.53,255.18c-9.09-15.39,6.15-24.84,7.41-78.36a266.11,266.11,0,0,1,3.18-39.17" transform="translate(18.47 30.16)"/><path class="cls-7" d="M1.06,137.65c3.16-19.83,4.87-29.84,11.65-34.94,14.16-10.67,45.52-2,57.17,16.94,8.35,13.56-1.27,19.63,2.12,55.06,2.42,25.33,8.37,33,7.41,58.23-.61,16.07-.92,24.1-6.35,30.71C56.55,283.7,4.44,278.83-9.53,255.18c-9.09-15.39,6.15-24.84,7.41-78.36A266.11,266.11,0,0,1,1.06,137.65Z" transform="translate(18.47 30.16)"/><path class="cls-14" d="M36,55.06c11.16-14.59,73.07-8.28,88.94,31.06,11.59,28.73-3.39,70.1-33.18,78.35-18.29,5.07-42-2.41-50.82-17.65-8.2-14.1,2.34-24.43-1.41-59.29C37.14,65.36,31.9,60.42,36,55.06" transform="translate(18.47 30.16)"/><path class="cls-7" d="M36,55.06c11.16-14.59,73.07-8.28,88.94,31.06,11.59,28.73-3.39,70.1-33.18,78.35-18.29,5.07-42-2.41-50.82-17.65-8.2-14.1,2.34-24.43-1.41-59.29C37.14,65.36,31.9,60.42,36,55.06Z" transform="translate(18.47 30.16)"/><path class="cls-15" d="M8.12-22.24C29.57-36.36,55.86-27,66.35-23.29,85.73-16.41,115,1.57,112.94,19.06,111,36,82.15,31.73,62.12,60.35,46.2,83.1,52.33,103,36.71,110.12,21.89,116.84,4,104.58,2.82,103.76-24.65,84.42-17.7,38.29-16.24,28.59-13.74,12.05-10.42-10,8.12-22.24" transform="translate(18.47 30.16)"/><path class="cls-7" d="M8.12-22.24C29.57-36.36,55.86-27,66.35-23.29,85.73-16.41,115,1.57,112.94,19.06,111,36,82.15,31.73,62.12,60.35,46.2,83.1,52.33,103,36.71,110.12,21.89,116.84,4,104.58,2.82,103.76-24.65,84.42-17.7,38.29-16.24,28.59-13.74,12.05-10.42-10,8.12-22.24Z" transform="translate(18.47 30.16)"/><path class="cls-16" d="M28.09,249.53c16.62-9.29,33-8.29,47.37-7.41,10.47.64,11.24,2.1,49.12,12.7,34.53,9.67,41.57,10.6,50,20.12,7.21,8.14,18.55,26.07,14,37.06-7,17.15-42.55-7.22-98.25,8.47-20.31,5.72-28.68,12.65-52.63,14.82-18.47,1.68-43.95,4-50.88-10.58-8.64-18.18,13.07-59.44,41.23-75.18" transform="translate(18.47 30.16)"/><path class="cls-7" d="M28.09,249.53c16.62-9.29,33-8.29,47.37-7.41,10.47.64,11.24,2.1,49.12,12.7,34.53,9.67,41.57,10.6,50,20.12,7.21,8.14,18.55,26.07,14,37.06-7,17.15-42.55-7.22-98.25,8.47-20.31,5.72-28.68,12.65-52.63,14.82-18.47,1.68-43.95,4-50.88-10.58C-21.78,306.53-.07,265.27,28.09,249.53Z" transform="translate(18.47 30.16)"/><path class="cls-17" d="M346.12,294.12c-6.18-.78-91.38-12.3-94.59-48.71-1.76-20,22-37.72,42.35-52.94,15.55-11.62,32.24-24.1,55.73-26.28,46-4.28,93.6,33.2,90.39,55.22-1.76,12-17.45,10.83-33.88,36-10.07,15.43-8.78,22.93-18.36,30.35-7.31,5.68-18.39,9.3-41.64,6.36" transform="translate(18.47 30.16)"/><path class="cls-7" d="M346.12,294.12c-6.18-.78-91.38-12.3-94.59-48.71-1.76-20,22-37.72,42.35-52.94,15.55-11.62,32.24-24.1,55.73-26.28,46-4.28,93.6,33.2,90.39,55.22-1.76,12-17.45,10.83-33.88,36-10.07,15.43-8.78,22.93-18.36,30.35C380.45,293.44,369.37,297.06,346.12,294.12Z" transform="translate(18.47 30.16)"/><path class="cls-10" d="M369.53,243.53c-13.28,31.75-19.92,47.62-12.71,62.47,12,24.75,55.64,35.06,80.47,20.12,34.52-20.77,25-85.57,5.3-120.71-5.19-9.28-13.95-24.93-26.47-25.41-19.7-.76-35.3,36.54-46.59,63.53" transform="translate(18.47 30.16)"/><path class="cls-7" d="M369.53,243.53c-13.28,31.75-19.92,47.62-12.71,62.47,12,24.75,55.64,35.06,80.47,20.12,34.52-20.77,25-85.57,5.3-120.71-5.19-9.28-13.95-24.93-26.47-25.41C396.42,179.24,380.82,216.54,369.53,243.53Z" transform="translate(18.47 30.16)"/></g><rect class="cls-7" x="35.41" y="43.57" width="405.33" height="289.75"/></svg>