<svg id="Layer_1" data-name="Layer 1" xmlns="http://www.w3.org/2000/svg" xmlns:xlink="http://www.w3.org/1999/xlink" viewBox="0 0 112.18 160.15"><defs><style>.cls-1,.cls-10,.cls-3,.cls-4,.cls-6{fill:none;}.cls-2{clip-path:url(#clip-path);}.cls-3{stroke:#97d6d4;stroke-linecap:round;stroke-width:6px;}.cls-10,.cls-3,.cls-4,.cls-6{stroke-miterlimit:10;}.cls-4{stroke:#00675c;}.cls-5{fill:#00675c;}.cls-10,.cls-6{stroke:#231f20;}.cls-7,.cls-8,.cls-9{fill:#231f20;}.cls-8{font-size:12px;}.cls-8,.cls-9{font-family:ArialNova-LightItalic, Arial Nova;font-style:italic;}.cls-9{font-size:7px;}.cls-10{stroke-width:0.5px;}</style><clipPath id="clip-path" transform="translate(-8.12 -7.95)"><rect class="cls-1" width="130.24" height="173.18"/></clipPath></defs><title>flexiblepolymer</title><g class="cls-2"><path class="cls-3" d="M102.21,146.87c1.2-1.28,1.76-3.42,4.14-6.76,1-1.34,6.68-6.82,5.71-9.05-.57-1.31-2.35-3.4-7.37-8.9-4-4.41-6-6.62-6.33-7.25-1.89-4.33.69-8.43,6.23-20.13,8.36-17.69,8.46-21,7-22.75-.89-1.07-3.76-1.38-9.48-2-8.88-.89-11.27-.2-12.61-2s.45-3.93,1.73-11C92.94,47.79,90.78,45,93.54,42c1.54-1.68,2.73-1.36,10.68-3.41,6.3-1.63,13.18-3.41,13.07-4.67s-5.8-1.59-14-2.23c-10.89-.86-15-.52-15.4-2-.37-1.34,2.52-2.82,10.46-8.64,10.54-7.74,10.67-9,10.47-9.45s-1-.9-9.41-.24c-7.92.63-11.93,1-14,2.21-2.23,1.36-4,4.95-7.45,12.1C71.6,38.81,70,42.33,67.74,42.25c-1,0-1.25-.82-7-7-3.4-3.65-3.81-3.9-4.37-4-3.69-1-6.73,4.31-13.53,10C32.82,49.65,25.3,50,25.4,54.15c0,1,.5,1.41,7,7.51,7,6.55,7.81,7.37,9.85,8.18.81.31,2.77,1,10.53.75,11.51-.39,13.59-2.12,15.48-.54,3,2.49.44,9-3.19,23.24-4,15.94-7.11,28.24-4,29.95,1.66.9,3.66-1.93,12.78-7.89,9.84-6.43,14.07-7.41,13.84-9.47-.29-2.75-8-2.41-20.46-6.24-16.55-5.06-22.2-11.48-26.67-8.47-.81.54-2.32,1.89-3.49,17-1.15,14.87-.23,20.51-3.88,22.75-1.55.94-4.39.69-10.07.18-7-.62-9.56-2-11.19-.41-1.42,1.34-.83,3.62-.27,8.33a109.76,109.76,0,0,1,.73,14.71" transform="translate(-8.12 -7.95)"/></g><line class="cls-4" x1="4.41" y1="147.11" x2="3.52" y2="129.36"/><polygon class="cls-5" points="5.92 130.83 3.17 122.29 1.28 131.06 5.92 130.83"/><line class="cls-4" x1="4" y1="122.29" x2="17.43" y2="123.37"/><polygon class="cls-5" points="15.67 125.56 24.5 123.94 16.04 120.92 15.67 125.56"/><line class="cls-4" x1="24.98" y1="123.93" x2="30.64" y2="90.74"/><polygon class="cls-5" points="32.67 92.69 31.84 83.75 28.08 91.91 32.67 92.69"/><line class="cls-4" x1="31.83" y1="83.01" x2="72.27" y2="95.86"/><polygon class="cls-5" points="70.06 97.59 79.03 98 71.47 93.16 70.06 97.59"/><line class="cls-4" x1="79.86" y1="98.73" x2="59.05" y2="111.57"/><polygon class="cls-5" points="59.18 108.76 53.02 115.28 61.62 112.71 59.18 108.76"/><line class="cls-4" x1="53.02" y1="114.29" x2="59.22" y2="69.12"/><polygon class="cls-5" points="61.3 71.01 60.18 62.1 56.7 70.38 61.3 71.01"/><line class="cls-4" x1="58" y1="62.1" x2="42.5" y2="62.1"/><polygon class="cls-5" points="44.09 59.78 35.41 62.1 44.09 64.42 44.09 59.78"/><line class="cls-4" x1="34.17" y1="61.89" x2="21.81" y2="51.63"/><polygon class="cls-5" points="24.52 50.85 16.36 47.1 21.55 54.43 24.52 50.85"/><line class="cls-6" x1="17.28" y1="46.2" x2="42.96" y2="27.17"/><polygon class="cls-7" points="43.07 29.98 48.66 22.95 40.3 26.24 43.07 29.98"/><line class="cls-4" x1="49.17" y1="22.58" x2="54.35" y2="29.73"/><polygon class="cls-5" points="51.54 29.81 58.51 35.47 55.31 27.09 51.54 29.81"/><line class="cls-4" x1="59.4" y1="34.65" x2="73.6" y2="11.59"/><polygon class="cls-5" points="74.75 14.16 77.32 5.55 70.79 11.72 74.75 14.16"/><line class="cls-4" x1="78.44" y1="5.55" x2="93.9" y2="3.67"/><polygon class="cls-5" points="92.61 6.17 100.94 2.82 92.05 1.56 92.61 6.17"/><line class="cls-4" x1="85.41" y1="34.65" x2="82.51" y2="53.13"/><polygon class="cls-5" points="80.46 51.21 81.41 60.13 85.05 51.93 80.46 51.21"/><line class="cls-4" x1="82.14" y1="60.14" x2="96.03" y2="62.46"/><polygon class="cls-5" points="94.08 64.49 103.02 63.64 94.85 59.91 94.08 64.49"/><line class="cls-4" x1="103.5" y1="64.08" x2="92.34" y2="100.19"/><polygon class="cls-5" points="90.58 97.99 90.24 106.96 95.02 99.36 90.58 97.99"/><line class="cls-4" x1="90.24" y1="107.29" x2="99.16" y2="117.05"/><polygon class="cls-5" points="96.37 117.45 103.94 122.29 99.81 114.31 96.37 117.45"/><line class="cls-4" x1="103.94" y1="123.11" x2="97.1" y2="134.09"/><polygon class="cls-5" points="95.96 131.52 93.35 140.11 99.91 133.98 95.96 131.52"/><line class="cls-4" x1="100.94" y1="4.18" x2="85.23" y2="17.16"/><polygon class="cls-5" points="84.97 14.36 79.77 21.67 87.94 17.94 84.97 14.36"/><line class="cls-4" x1="80.11" y1="22.95" x2="101.55" y2="24.7"/><polygon class="cls-5" points="99.78 26.88 108.61 25.27 100.16 22.25 99.78 26.88"/><line class="cls-4" x1="108.39" y1="26.68" x2="92.17" y2="31.85"/><polygon class="cls-5" points="92.97 29.16 85.41 34.01 94.38 33.58 92.97 29.16"/><line class="cls-6" x1="4.41" y1="147.59" x2="85.76" y2="140.98"/><polygon class="cls-7" points="84.36 143.42 92.82 140.41 83.99 138.79 84.36 143.42"/><text class="cls-8" transform="translate(17.74 32.7)">r</text><text class="cls-9" transform="translate(21.77 36.7)">i</text><text class="cls-8" transform="translate(43.05 157.58)">R</text><path class="cls-7" d="M53.07,155.54h0Z" transform="translate(-8.12 -7.95)"/><line class="cls-10" x1="44.95" y1="147.59" x2="48.23" y2="147.59"/><polygon class="cls-7" points="47.73 148.31 50.44 147.59 47.73 146.86 47.73 148.31"/><path class="cls-7" d="M27.28,32.71h0Z" transform="translate(-8.12 -7.95)"/><line class="cls-10" x1="19.16" y1="24.76" x2="22.44" y2="24.76"/><polygon class="cls-7" points="21.94 25.48 24.65 24.76 21.94 24.03 21.94 25.48"/></svg>