<svg id="Layer_1" data-name="Layer 1" xmlns="http://www.w3.org/2000/svg" xmlns:xlink="http://www.w3.org/1999/xlink" viewBox="0 0 170.08 198.68"><defs><style>.cls-1,.cls-11,.cls-14,.cls-8,.cls-9{fill:none;}.cls-2{clip-path:url(#clip-path);}.cls-3{opacity:0.28;}.cls-4{clip-path:url(#clip-path-3);}.cls-5{fill:#97d6d4;}.cls-6{fill:#bcbec0;}.cls-7{fill:#e96868;}.cls-11,.cls-14,.cls-8{stroke:#231f20;}.cls-11,.cls-14,.cls-8,.cls-9{stroke-miterlimit:10;}.cls-14,.cls-8{stroke-width:0.25px;}.cls-9{stroke:#fff;stroke-width:2px;}.cls-11,.cls-14,.cls-9{stroke-linecap:round;}.cls-10{fill:#6a8ba4;}.cls-12,.cls-13{fill:#231f20;}.cls-13{font-size:14px;font-family:ArialNova-Light, Arial Nova;}</style><clipPath id="clip-path" transform="translate(-4.42 -4.37)"><rect class="cls-1" width="177.59" height="206.47"/></clipPath><clipPath id="clip-path-3" transform="translate(-4.42 -4.37)"><rect class="cls-1" x="4.42" y="4.49" width="170.08" height="198.42"/></clipPath></defs><title>screening</title><g class="cls-2"><g class="cls-2"><g class="cls-3"><g class="cls-4"><rect class="cls-5" y="0.13" width="170.08" height="198.43"/></g></g></g><rect class="cls-6" y="0.13" width="15.81" height="198.43"/><g class="cls-2"><path class="cls-7" d="M167.94,35.18a10.41,10.41,0,1,1-10.41-10.42,10.41,10.41,0,0,1,10.41,10.42" transform="translate(-4.42 -4.37)"/><circle class="cls-8" cx="153.11" cy="30.81" r="10.41"/><line class="cls-9" x1="148.08" y1="30.81" x2="158.14" y2="30.81"/><path class="cls-10" d="M117.65,21.88a10.42,10.42,0,1,1-10.41-10.41,10.41,10.41,0,0,1,10.41,10.41" transform="translate(-4.42 -4.37)"/><circle class="cls-8" cx="102.81" cy="17.51" r="10.41"/><line class="cls-9" x1="97.78" y1="17.51" x2="107.84" y2="17.51"/><line class="cls-9" x1="102.81" y1="12.48" x2="102.81" y2="22.54"/><path class="cls-7" d="M128.06,66.71a10.42,10.42,0,1,1-10.41-10.42,10.41,10.41,0,0,1,10.41,10.42" transform="translate(-4.42 -4.37)"/><circle class="cls-8" cx="113.22" cy="62.34" r="10.41"/><line class="cls-9" x1="108.2" y1="62.34" x2="118.25" y2="62.34"/><path class="cls-7" d="M107.24,122.82a10.42,10.42,0,1,1-10.42-10.41,10.43,10.43,0,0,1,10.42,10.41" transform="translate(-4.42 -4.37)"/><circle class="cls-8" cx="92.4" cy="118.46" r="10.41"/><line class="cls-9" x1="87.37" y1="118.46" x2="97.43" y2="118.46"/><path class="cls-7" d="M128.06,178.94a10.42,10.42,0,1,1-10.41-10.41,10.41,10.41,0,0,1,10.41,10.41" transform="translate(-4.42 -4.37)"/><circle class="cls-8" cx="113.22" cy="174.57" r="10.41"/><line class="cls-9" x1="108.2" y1="174.57" x2="118.25" y2="174.57"/><path class="cls-10" d="M56.82,42.71A10.41,10.41,0,1,1,46.41,32.29,10.41,10.41,0,0,1,56.82,42.71" transform="translate(-4.42 -4.37)"/><circle class="cls-8" cx="41.99" cy="38.34" r="10.41"/><line class="cls-9" x1="36.96" y1="38.34" x2="47.02" y2="38.34"/><line class="cls-9" x1="41.99" y1="33.31" x2="41.99" y2="43.37"/><path class="cls-10" d="M96.82,146.65a10.41,10.41,0,1,1-10.41-10.41,10.41,10.41,0,0,1,10.41,10.41" transform="translate(-4.42 -4.37)"/><circle class="cls-8" cx="81.99" cy="142.28" r="10.41"/><line class="cls-9" x1="76.96" y1="142.28" x2="87.02" y2="142.28"/><line class="cls-9" x1="81.99" y1="137.25" x2="81.99" y2="147.31"/><path class="cls-10" d="M60.38,117.79A10.41,10.41,0,1,1,50,107.38a10.42,10.42,0,0,1,10.41,10.41" transform="translate(-4.42 -4.37)"/><circle class="cls-8" cx="45.55" cy="113.43" r="10.41"/><line class="cls-9" x1="40.52" y1="113.43" x2="50.58" y2="113.43"/><line class="cls-9" x1="45.55" y1="108.4" x2="45.55" y2="118.46"/><path class="cls-10" d="M68.94,165.77a10.41,10.41,0,1,1-10.41-10.42,10.41,10.41,0,0,1,10.41,10.42" transform="translate(-4.42 -4.37)"/><circle class="cls-8" cx="54.11" cy="161.4" r="10.41"/><line class="cls-9" x1="49.08" y1="161.4" x2="59.14" y2="161.4"/><line class="cls-9" x1="54.11" y1="156.37" x2="54.11" y2="166.43"/><path class="cls-10" d="M44.94,186.59a10.41,10.41,0,1,1-10.41-10.41,10.41,10.41,0,0,1,10.41,10.41" transform="translate(-4.42 -4.37)"/><circle class="cls-8" cx="30.11" cy="182.22" r="10.41"/><line class="cls-9" x1="25.08" y1="182.22" x2="35.14" y2="182.22"/><line class="cls-9" x1="30.11" y1="177.19" x2="30.11" y2="187.25"/><path class="cls-10" d="M155.44,174.94A10.41,10.41,0,1,1,145,164.53a10.41,10.41,0,0,1,10.41,10.41" transform="translate(-4.42 -4.37)"/><circle class="cls-8" cx="140.61" cy="170.57" r="10.41"/><line class="cls-9" x1="135.58" y1="170.57" x2="145.64" y2="170.57"/><line class="cls-9" x1="140.61" y1="165.54" x2="140.61" y2="175.6"/><path class="cls-10" d="M162.91,131.77a10.41,10.41,0,1,1-10.41-10.42,10.41,10.41,0,0,1,10.41,10.42" transform="translate(-4.42 -4.37)"/><circle class="cls-8" cx="148.08" cy="127.4" r="10.41"/><line class="cls-9" x1="143.05" y1="127.4" x2="153.11" y2="127.4"/><line class="cls-9" x1="148.08" y1="122.37" x2="148.08" y2="132.43"/><path class="cls-10" d="M77.65,72.71A10.42,10.42,0,1,1,67.24,62.29,10.41,10.41,0,0,1,77.65,72.71" transform="translate(-4.42 -4.37)"/><circle class="cls-8" cx="62.81" cy="68.34" r="10.41"/><line class="cls-9" x1="57.78" y1="68.34" x2="67.84" y2="68.34"/><line class="cls-9" x1="62.81" y1="63.31" x2="62.81" y2="73.37"/><line class="cls-11" x1="15.81" y1="99.34" x2="143.84" y2="99.34"/><polygon class="cls-12" points="142.38 104.32 151.02 99.34 142.38 94.35 142.38 104.32"/></g><text class="cls-13" transform="translate(149.34 109.79)">z</text><line class="cls-11" x1="3.97" y1="191.25" x2="11.84" y2="191.25"/><line class="cls-11" x1="3.97" y1="168.27" x2="11.84" y2="168.27"/><line class="cls-11" x1="3.97" y1="145.29" x2="11.84" y2="145.29"/><line class="cls-11" x1="3.97" y1="122.32" x2="11.84" y2="122.32"/><line class="cls-11" x1="3.97" y1="99.34" x2="11.84" y2="99.34"/><line class="cls-11" x1="3.97" y1="76.36" x2="11.84" y2="76.36"/><line class="cls-11" x1="3.97" y1="53.38" x2="11.84" y2="53.38"/><line class="cls-11" x1="3.97" y1="30.4" x2="11.84" y2="30.4"/><line class="cls-11" x1="3.97" y1="7.43" x2="11.84" y2="7.43"/><line class="cls-14" x1="15.81" y1="0.13" x2="15.81" y2="198.55"/></g></svg>