<svg id="Layer_1" data-name="Layer 1" xmlns="http://www.w3.org/2000/svg" xmlns:xlink="http://www.w3.org/1999/xlink" viewBox="0 0 446.33 120.22"><defs><style>.cls-1,.cls-12,.cls-3,.cls-5,.cls-6,.cls-7,.cls-8,.cls-9{fill:none;}.cls-2{fill:#dcf0ee;}.cls-3,.cls-5,.cls-6,.cls-8,.cls-9{stroke:#231f20;}.cls-12,.cls-3,.cls-5,.cls-6,.cls-7,.cls-8,.cls-9{stroke-miterlimit:10;}.cls-3{stroke-width:0.25px;}.cls-4{fill:#bcbec0;}.cls-12,.cls-5,.cls-6{stroke-width:0.5px;}.cls-6{stroke-dasharray:5.3 3.54;}.cls-7{stroke:#4a6275;stroke-width:4px;}.cls-8{stroke-width:0.75px;}.cls-9{stroke-width:6px;}.cls-10{fill:#231f20;}.cls-11{clip-path:url(#clip-path);}.cls-12{stroke:#fff;stroke-linecap:round;}</style><clipPath id="clip-path" transform="translate(-5.47 -4.88)"><rect class="cls-1" width="456.88" height="130.94"/></clipPath></defs><title>foursystems</title><rect class="cls-2" x="0.13" y="0.13" width="106.75" height="106.75"/><rect class="cls-3" x="0.13" y="0.13" width="106.75" height="106.75"/><rect class="cls-4" x="31.05" y="31.05" width="44.9" height="44.9"/><rect class="cls-3" x="31.05" y="31.05" width="44.9" height="44.9"/><rect class="cls-2" x="112.63" y="0.13" width="106.75" height="106.75"/><rect class="cls-3" x="112.63" y="0.13" width="106.75" height="106.75"/><rect class="cls-4" x="143.56" y="31.05" width="44.9" height="44.9"/><rect class="cls-5" x="143.56" y="31.05" width="44.9" height="44.9"/><rect class="cls-2" x="226.04" y="0.13" width="106.75" height="106.75"/><rect class="cls-3" x="226.04" y="0.13" width="106.75" height="106.75"/><rect class="cls-4" x="256.97" y="31.05" width="44.9" height="44.9"/><polyline class="cls-5" points="301.87 72.95 301.87 75.95 298.87 75.95"/><line class="cls-6" x1="295.33" y1="75.95" x2="261.74" y2="75.95"/><polyline class="cls-5" points="259.97 75.95 256.97 75.95 256.97 72.95"/><line class="cls-6" x1="256.97" y1="69.41" x2="256.97" y2="35.82"/><polyline class="cls-5" points="256.97 34.05 256.97 31.05 259.97 31.05"/><line class="cls-6" x1="263.5" y1="31.05" x2="297.1" y2="31.05"/><polyline class="cls-5" points="298.87 31.05 301.87 31.05 301.87 34.05"/><line class="cls-6" x1="301.86" y1="37.59" x2="301.86" y2="71.18"/><rect class="cls-2" x="339.45" y="0.13" width="106.75" height="106.75"/><rect class="cls-3" x="339.45" y="0.13" width="106.75" height="106.75"/><rect class="cls-4" x="370.38" y="31.05" width="44.9" height="44.9"/><rect class="cls-3" x="370.38" y="31.05" width="44.9" height="44.9"/><line class="cls-7" x1="31.05" y1="74.27" x2="75.95" y2="74.27"/><line class="cls-7" x1="53.5" y1="76.15" x2="53.5" y2="97.33"/><polyline class="cls-8" points="73.6 86.89 75.95 86.89 75.95 31.05 53.5 31.05 31.05 31.05 31.05 86.89 33.4 86.89"/><line class="cls-7" x1="370.38" y1="74.27" x2="415.27" y2="74.27"/><line class="cls-7" x1="392.83" y1="76.15" x2="392.83" y2="97.33"/><polyline class="cls-9" points="415.27 86.89 415.27 31.05 392.82 31.05 370.38 31.05 370.38 86.89"/><path class="cls-10" d="M40.52,39.23a1.25,1.25,0,0,0-.45.08.62.62,0,0,0-.3.22.52.52,0,0,0-.11.33.54.54,0,0,0,.09.33.7.7,0,0,0,.31.23,3.39,3.39,0,0,0,.62.16,3,3,0,0,1,.79.23,1.08,1.08,0,0,1,.44.36,1,1,0,0,1,.14.55,1.12,1.12,0,0,1-.18.62,1.18,1.18,0,0,1-.51.42,1.79,1.79,0,0,1-.75.15,1.64,1.64,0,0,1-1-.28,1.28,1.28,0,0,1-.49-.84l.46-.07a.94.94,0,0,0,1,.79,1.29,1.29,0,0,0,.51-.09.78.78,0,0,0,.33-.26.64.64,0,0,0,.12-.38.58.58,0,0,0-.12-.38.79.79,0,0,0-.35-.23,4.43,4.43,0,0,0-.67-.16,2,2,0,0,1-.92-.37.9.9,0,0,1-.31-.73,1,1,0,0,1,.16-.55,1.17,1.17,0,0,1,.46-.39,1.68,1.68,0,0,1,.7-.14,1.65,1.65,0,0,1,.93.24,1.17,1.17,0,0,1,.48.71l-.47.07a.68.68,0,0,0-.31-.46A1.17,1.17,0,0,0,40.52,39.23Z" transform="translate(-5.47 -4.88)"/><path class="cls-10" d="M44.14,42.28h0c.08-.25.2-.6.36-1.06l.85-2.3h.47l-1.68,4.47a2.47,2.47,0,0,1-.3.61.93.93,0,0,1-.32.31,1,1,0,0,1-.43.09,1.84,1.84,0,0,1-.47-.06l.1-.4.15,0H43a.67.67,0,0,0,.3-.06.64.64,0,0,0,.21-.22,2.37,2.37,0,0,0,.2-.44l.15-.43-1.46-3.92h.5l.83,2.27C43.91,41.56,44,41.93,44.14,42.28Z" transform="translate(-5.47 -4.88)"/><path class="cls-10" d="M47.53,39.23a1.19,1.19,0,0,0-.44.08.7.7,0,0,0-.31.22.52.52,0,0,0-.11.33.54.54,0,0,0,.09.33.7.7,0,0,0,.31.23,3.39,3.39,0,0,0,.62.16,3.09,3.09,0,0,1,.8.23,1.16,1.16,0,0,1,.44.36,1,1,0,0,1,.14.55,1.13,1.13,0,0,1-.19.62,1.18,1.18,0,0,1-.51.42,1.72,1.72,0,0,1-.74.15,1.69,1.69,0,0,1-1-.28,1.32,1.32,0,0,1-.49-.84l.47-.07a.93.93,0,0,0,1,.79,1.29,1.29,0,0,0,.51-.09.68.68,0,0,0,.33-.26.69.69,0,0,0,0-.76.9.9,0,0,0-.36-.23,4.15,4.15,0,0,0-.67-.16,2,2,0,0,1-.92-.37,1,1,0,0,1-.14-1.28,1,1,0,0,1,.46-.39,1.67,1.67,0,0,1,.69-.14,1.65,1.65,0,0,1,.93.24,1.17,1.17,0,0,1,.48.71l-.46.07a.75.75,0,0,0-.31-.46A1.24,1.24,0,0,0,47.53,39.23Z" transform="translate(-5.47 -4.88)"/><path class="cls-10" d="M51.29,38.92v.39h-.73v2.56a1.18,1.18,0,0,0,0,.37.26.26,0,0,0,.13.17.6.6,0,0,0,.25,0,1.27,1.27,0,0,0,.34,0l.06.41a3.89,3.89,0,0,1-.48,0,1,1,0,0,1-.52-.11.55.55,0,0,1-.24-.33,2.3,2.3,0,0,1-.06-.6V39.31h-.56v-.39h.56V38l.48-.34v1.27Z" transform="translate(-5.47 -4.88)"/><path class="cls-10" d="M53.58,42.51a1.15,1.15,0,0,0,.69-.21,1.12,1.12,0,0,0,.41-.58l.47.07a1.69,1.69,0,0,1-.6.84,1.92,1.92,0,0,1-1.93,0A1.6,1.6,0,0,1,52,42a2.55,2.55,0,0,1-.21-1.07A2.67,2.67,0,0,1,52,39.8a1.66,1.66,0,0,1,.61-.72,1.73,1.73,0,0,1,.92-.25,1.55,1.55,0,0,1,1,.28,1.57,1.57,0,0,1,.55.75,3.39,3.39,0,0,1,.17,1.1H52.29a2.08,2.08,0,0,0,.17.83,1.17,1.17,0,0,0,.46.54A1.21,1.21,0,0,0,53.58,42.51Zm0-3.28a1.13,1.13,0,0,0-.61.16,1.2,1.2,0,0,0-.43.46,2,2,0,0,0-.2.71h2.44a1.67,1.67,0,0,0-.37-1A1,1,0,0,0,53.54,39.23Z" transform="translate(-5.47 -4.88)"/><path class="cls-10" d="M59.91,38.83a1.23,1.23,0,0,1,.61.15.93.93,0,0,1,.41.44,1.52,1.52,0,0,1,.15.71v2.69h-.46V40.21a1.12,1.12,0,0,0-.2-.75.81.81,0,0,0-.61-.22.92.92,0,0,0-.78.35,1.76,1.76,0,0,0-.26,1v2.2h-.46V40.29a2.05,2.05,0,0,0-.08-.63.61.61,0,0,0-.26-.32.73.73,0,0,0-.41-.1.94.94,0,0,0-.59.2,1.14,1.14,0,0,0-.38.52,2.19,2.19,0,0,0-.12.75v2.11H56v-3.9h.44v.57h0a1.33,1.33,0,0,1,1.18-.66,1.17,1.17,0,0,1,.64.16,1,1,0,0,1,.4.49,1.42,1.42,0,0,1,.55-.5A1.47,1.47,0,0,1,59.91,38.83Z" transform="translate(-5.47 -4.88)"/><path class="cls-10" d="M10,9.13a.76.76,0,0,0-.51.18,1.08,1.08,0,0,0-.31.51,2.35,2.35,0,0,0-.11.74v2.09H8.55V8.75H9v.62H9a1.55,1.55,0,0,1,.41-.53A.93.93,0,0,1,10,8.66a1.29,1.29,0,0,1,.29,0,1.89,1.89,0,0,1,.31.13l-.15.44A1,1,0,0,0,10,9.13Z" transform="translate(-5.47 -4.88)"/><path class="cls-10" d="M12.54,12.34a1.12,1.12,0,0,0,.68-.21,1.23,1.23,0,0,0,.42-.59l.47.07a1.62,1.62,0,0,1-.61.84,1.86,1.86,0,0,1-1.93,0,1.62,1.62,0,0,1-.61-.7,2.51,2.51,0,0,1-.21-1.06A2.48,2.48,0,0,1,11,9.63a1.5,1.5,0,0,1,.61-.72,1.65,1.65,0,0,1,.92-.25,1.6,1.6,0,0,1,1,.27,1.58,1.58,0,0,1,.55.76,3.09,3.09,0,0,1,.18,1.1H11.24a2.07,2.07,0,0,0,.18.83,1.34,1.34,0,0,0,.45.54A1.24,1.24,0,0,0,12.54,12.34Zm0-3.28a1.1,1.1,0,0,0-1,.61,1.74,1.74,0,0,0-.2.72H13.7a1.8,1.8,0,0,0-.37-1A1.11,1.11,0,0,0,12.49,9.06Z" transform="translate(-5.47 -4.88)"/><path class="cls-10" d="M16.14,9.06a1,1,0,0,0-.44.08.7.7,0,0,0-.31.22.52.52,0,0,0-.1.33.58.58,0,0,0,.09.33.64.64,0,0,0,.31.22,2.63,2.63,0,0,0,.61.16,3.06,3.06,0,0,1,.8.24,1,1,0,0,1,.44.36,1,1,0,0,1,.14.55,1,1,0,0,1-.19.61,1.32,1.32,0,0,1-.5.43,1.79,1.79,0,0,1-.75.15,1.69,1.69,0,0,1-1-.28,1.32,1.32,0,0,1-.49-.85l.47-.07a.94.94,0,0,0,1,.8,1.29,1.29,0,0,0,.51-.09.77.77,0,0,0,.34-.27.68.68,0,0,0,.11-.38.6.6,0,0,0-.11-.37.8.8,0,0,0-.36-.23,3.76,3.76,0,0,0-.67-.17,1.83,1.83,0,0,1-.92-.37.91.91,0,0,1-.3-.72A1,1,0,0,1,15,9.18a1.09,1.09,0,0,1,.46-.38,1.52,1.52,0,0,1,.69-.14,1.65,1.65,0,0,1,.93.24,1.17,1.17,0,0,1,.48.71l-.46.06a.76.76,0,0,0-.31-.45A1.15,1.15,0,0,0,16.14,9.06Z" transform="translate(-5.47 -4.88)"/><path class="cls-10" d="M20.05,12.34a1.12,1.12,0,0,0,.68-.21,1.23,1.23,0,0,0,.42-.59l.47.07a1.62,1.62,0,0,1-.61.84,1.86,1.86,0,0,1-1.93,0,1.62,1.62,0,0,1-.61-.7,2.51,2.51,0,0,1-.21-1.06,2.48,2.48,0,0,1,.22-1.1,1.54,1.54,0,0,1,.6-.72A1.71,1.71,0,0,1,20,8.66a1.6,1.6,0,0,1,1,.27,1.58,1.58,0,0,1,.55.76,3.09,3.09,0,0,1,.18,1.1H18.75a2.07,2.07,0,0,0,.18.83,1.34,1.34,0,0,0,.45.54A1.24,1.24,0,0,0,20.05,12.34ZM20,9.06a1.1,1.1,0,0,0-1,.61,1.74,1.74,0,0,0-.2.72h2.44a1.8,1.8,0,0,0-.37-1A1.11,1.11,0,0,0,20,9.06Z" transform="translate(-5.47 -4.88)"/><path class="cls-10" d="M23.87,9.13a.75.75,0,0,0-.5.18,1.09,1.09,0,0,0-.32.51,2.37,2.37,0,0,0-.1.74v2.09h-.48V8.75h.45v.62h0a1.69,1.69,0,0,1,.42-.53.93.93,0,0,1,.56-.17,1.36,1.36,0,0,1,.29,0l.31.13-.16.44A1,1,0,0,0,23.87,9.13Z" transform="translate(-5.47 -4.88)"/><path class="cls-10" d="M27.78,8.75h.49l-1.53,3.9h-.42l-1.53-3.9h.49l1.25,3.33Z" transform="translate(-5.47 -4.88)"/><path class="cls-10" d="M28.48,10.7a2.46,2.46,0,0,1,.23-1.11,1.55,1.55,0,0,1,.61-.7,1.94,1.94,0,0,1,1.83,0,1.6,1.6,0,0,1,.62.69A2.68,2.68,0,0,1,32,10.69a2.61,2.61,0,0,1-.22,1.11,1.56,1.56,0,0,1-.61.7,1.79,1.79,0,0,1-.93.24,1.72,1.72,0,0,1-.91-.24,1.5,1.5,0,0,1-.62-.69A2.68,2.68,0,0,1,28.48,10.7Zm1.74-1.64a1.17,1.17,0,0,0-.64.18,1.19,1.19,0,0,0-.44.56,2.16,2.16,0,0,0-.17.9,2.43,2.43,0,0,0,.16.91,1.24,1.24,0,0,0,.45.55,1.15,1.15,0,0,0,.65.18,1.21,1.21,0,0,0,.66-.18,1.16,1.16,0,0,0,.44-.55,2.29,2.29,0,0,0,.17-.92,2.36,2.36,0,0,0-.16-.89,1.24,1.24,0,0,0-.45-.55A1.15,1.15,0,0,0,30.22,9.06Z" transform="translate(-5.47 -4.88)"/><path class="cls-10" d="M32.77,7.91V7.26h.48v.65Zm0,4.74V8.75h.48v3.9Z" transform="translate(-5.47 -4.88)"/><path class="cls-10" d="M35.67,9.13a.76.76,0,0,0-.51.18,1.08,1.08,0,0,0-.31.51,2.35,2.35,0,0,0-.11.74v2.09h-.47V8.75h.44v.62h0a1.55,1.55,0,0,1,.41-.53,1,1,0,0,1,.56-.17,1.39,1.39,0,0,1,.3,0l.31.13-.16.44A1,1,0,0,0,35.67,9.13Z" transform="translate(-5.47 -4.88)"/><path class="cls-10" d="M68.9,104.5a1.15,1.15,0,0,1,.57.14.92.92,0,0,1,.38.4,1.51,1.51,0,0,1,.14.67v2.5h-.43v-2.43a1,1,0,0,0-.18-.69.73.73,0,0,0-.57-.21.83.83,0,0,0-.72.33,1.59,1.59,0,0,0-.24,1v2h-.43v-2.36a1.8,1.8,0,0,0-.08-.58.57.57,0,0,0-.24-.3.74.74,0,0,0-.38-.09.87.87,0,0,0-.55.18,1.12,1.12,0,0,0-.35.49,1.9,1.9,0,0,0-.12.7v2h-.42v-3.63h.41v.53h0a1.24,1.24,0,0,1,1.1-.61,1.11,1.11,0,0,1,.6.15.93.93,0,0,1,.37.45,1.36,1.36,0,0,1,.51-.46A1.38,1.38,0,0,1,68.9,104.5Z" transform="translate(-5.47 -4.88)"/><path class="cls-10" d="M70.71,106.4a2.5,2.5,0,0,1,.2-1,1.49,1.49,0,0,1,.57-.64,1.77,1.77,0,0,1,1.71,0,1.49,1.49,0,0,1,.57.64,2.46,2.46,0,0,1,.2,1,2.54,2.54,0,0,1-.2,1,1.37,1.37,0,0,1-.57.64,1.6,1.6,0,0,1-.86.23,1.71,1.71,0,0,1-.85-.22,1.58,1.58,0,0,1-.57-.65A2.49,2.49,0,0,1,70.71,106.4Zm1.61-1.53a1.07,1.07,0,0,0-.59.17,1.16,1.16,0,0,0-.42.52,2.43,2.43,0,0,0,0,1.68,1.12,1.12,0,0,0,.41.51,1.06,1.06,0,0,0,.61.17,1,1,0,0,0,.61-.17,1.08,1.08,0,0,0,.42-.51,2.12,2.12,0,0,0,.15-.85,2,2,0,0,0-.15-.82,1.16,1.16,0,0,0-.42-.52A1.05,1.05,0,0,0,72.32,104.87Z" transform="translate(-5.47 -4.88)"/><path class="cls-10" d="M77,104.58h.45L76,108.21h-.39l-1.42-3.63h.46l1.16,3.1Z" transform="translate(-5.47 -4.88)"/><path class="cls-10" d="M80.71,108.21h-.46a2,2,0,0,1-.12-.55h0a1.76,1.76,0,0,1-.55.48,1.68,1.68,0,0,1-.74.16,1.34,1.34,0,0,1-.58-.13,1,1,0,0,1-.39-.36,1,1,0,0,1-.13-.52,1,1,0,0,1,.13-.54,1,1,0,0,1,.43-.36,2.54,2.54,0,0,1,.77-.22,5.38,5.38,0,0,0,1-.23v-.13a1.57,1.57,0,0,0-.07-.54.56.56,0,0,0-.27-.3,1.37,1.37,0,0,0-.56-.1.86.86,0,0,0-1,.71l-.43-.06a1.2,1.2,0,0,1,.47-.76,1.56,1.56,0,0,1,.94-.26,2,2,0,0,1,.74.12.86.86,0,0,1,.43.39,1.49,1.49,0,0,1,.14.72v1.35a5.05,5.05,0,0,0,0,.69A1.39,1.39,0,0,0,80.71,108.21ZM79,106.55a1.43,1.43,0,0,0-.64.26.63.63,0,0,0-.2.48.59.59,0,0,0,.2.47.82.82,0,0,0,.56.18,1.24,1.24,0,0,0,.31,0,1.66,1.66,0,0,0,.33-.15,1,1,0,0,0,.25-.2,1.86,1.86,0,0,0,.17-.26.92.92,0,0,0,.08-.29,3.64,3.64,0,0,0,0-.52v-.18a2.6,2.6,0,0,1-.37.11C79.55,106.45,79.31,106.5,79,106.55Z" transform="translate(-5.47 -4.88)"/><path class="cls-10" d="M82,105.17h0a1.62,1.62,0,0,1,.54-.51,1.28,1.28,0,0,1,.65-.16,1.39,1.39,0,0,1,.82.24,1.49,1.49,0,0,1,.51.67,2.4,2.4,0,0,1,.18,1,2.66,2.66,0,0,1-.18,1,1.5,1.5,0,0,1-.52.68,1.37,1.37,0,0,1-.8.24,1.53,1.53,0,0,1-.69-.16,1.29,1.29,0,0,1-.51-.48h0v.55h-.42v-5H82Zm1.19-.3a1,1,0,0,0-.66.21,1.26,1.26,0,0,0-.4.57,2.48,2.48,0,0,0-.13.8,1.89,1.89,0,0,0,.15.79,1.16,1.16,0,0,0,.41.51,1.09,1.09,0,0,0,.61.17.9.9,0,0,0,.56-.19,1.32,1.32,0,0,0,.4-.54,2.31,2.31,0,0,0,.14-.82,1.91,1.91,0,0,0-.14-.78,1.19,1.19,0,0,0-.38-.53A.92.92,0,0,0,83.17,104.87Z" transform="translate(-5.47 -4.88)"/><path class="cls-10" d="M85.43,108.21v-5h.44v5Z" transform="translate(-5.47 -4.88)"/><path class="cls-10" d="M88.27,107.92a1,1,0,0,0,.63-.19,1.11,1.11,0,0,0,.39-.55l.43.07a1.47,1.47,0,0,1-.56.78,1.73,1.73,0,0,1-1.79,0,1.54,1.54,0,0,1-.57-.66,2.32,2.32,0,0,1-.2-1,2.49,2.49,0,0,1,.2-1,1.64,1.64,0,0,1,.57-.67,1.6,1.6,0,0,1,.86-.23,1.52,1.52,0,0,1,.9.26,1.47,1.47,0,0,1,.51.7,3.16,3.16,0,0,1,.16,1H87.06a1.79,1.79,0,0,0,.17.77,1.1,1.1,0,0,0,.42.5A1,1,0,0,0,88.27,107.92Zm0-3a1,1,0,0,0-.56.15,1.08,1.08,0,0,0-.4.42,1.88,1.88,0,0,0-.19.67h2.27a1.58,1.58,0,0,0-.34-.93A1,1,0,0,0,88.22,104.87Z" transform="translate(-5.47 -4.88)"/><path class="cls-10" d="M92.81,107.68h0v1.92h-.44v-5h.42v.6h0a1.64,1.64,0,0,1,.55-.51,1.46,1.46,0,0,1,.69-.16,1.34,1.34,0,0,1,.79.24,1.43,1.43,0,0,1,.5.67,2.4,2.4,0,0,1,.18,1,2.66,2.66,0,0,1-.18,1,1.47,1.47,0,0,1-.52.67,1.38,1.38,0,0,1-.8.25,1.45,1.45,0,0,1-.68-.15A1.31,1.31,0,0,1,92.81,107.68ZM94,104.87a1,1,0,0,0-.64.21,1.17,1.17,0,0,0-.4.56,2.31,2.31,0,0,0-.14.82,2,2,0,0,0,.15.79,1.14,1.14,0,0,0,.41.5,1.09,1.09,0,0,0,.61.17.92.92,0,0,0,.58-.19,1.1,1.1,0,0,0,.38-.54,2.23,2.23,0,0,0,.14-.82,2.14,2.14,0,0,0-.14-.79,1.14,1.14,0,0,0-.38-.52A.93.93,0,0,0,94,104.87Z" transform="translate(-5.47 -4.88)"/><path class="cls-10" d="M96.22,103.81v-.61h.44v.61Zm0,4.4v-3.63h.44v3.63Z" transform="translate(-5.47 -4.88)"/><path class="cls-10" d="M98.71,104.87a1.07,1.07,0,0,0-.41.08.54.54,0,0,0-.28.2.49.49,0,0,0-.11.31.52.52,0,0,0,.09.31.55.55,0,0,0,.29.2,2.28,2.28,0,0,0,.57.15,3.13,3.13,0,0,1,.74.22,1,1,0,0,1,.41.34,1,1,0,0,1,.13.51,1,1,0,0,1-.17.57,1.17,1.17,0,0,1-.48.39,1.52,1.52,0,0,1-.69.15,1.5,1.5,0,0,1-.94-.27,1.19,1.19,0,0,1-.46-.78l.43-.07a.88.88,0,0,0,1,.74,1.32,1.32,0,0,0,.47-.08.7.7,0,0,0,.31-.25.61.61,0,0,0,.11-.35.56.56,0,0,0-.11-.35.76.76,0,0,0-.33-.22,5.17,5.17,0,0,0-.62-.15,1.82,1.82,0,0,1-.86-.34.85.85,0,0,1-.28-.68.9.9,0,0,1,.15-.51,1.06,1.06,0,0,1,.42-.36,1.48,1.48,0,0,1,.65-.13,1.51,1.51,0,0,1,.86.23,1,1,0,0,1,.45.65l-.43.06a.66.66,0,0,0-.29-.42A1.05,1.05,0,0,0,98.71,104.87Z" transform="translate(-5.47 -4.88)"/><path class="cls-10" d="M102.21,104.58v.36h-.69v2.38a1.4,1.4,0,0,0,0,.35.27.27,0,0,0,.13.16.47.47,0,0,0,.23,0,1.12,1.12,0,0,0,.31-.05l.06.38a3.25,3.25,0,0,1-.44,0,.92.92,0,0,1-.49-.1.49.49,0,0,1-.22-.3,2.16,2.16,0,0,1-.06-.57v-2.34h-.52v-.36h.52v-.86l.44-.32v1.18Z" transform="translate(-5.47 -4.88)"/><path class="cls-10" d="M102.67,106.4a2.5,2.5,0,0,1,.2-1,1.49,1.49,0,0,1,.57-.64,1.77,1.77,0,0,1,1.71,0,1.49,1.49,0,0,1,.57.64,2.46,2.46,0,0,1,.2,1,2.54,2.54,0,0,1-.2,1,1.37,1.37,0,0,1-.57.64,1.6,1.6,0,0,1-.86.23,1.71,1.71,0,0,1-.85-.22,1.58,1.58,0,0,1-.57-.65A2.49,2.49,0,0,1,102.67,106.4Zm1.61-1.53a1.07,1.07,0,0,0-.59.17,1.16,1.16,0,0,0-.42.52,2.43,2.43,0,0,0,0,1.68,1.12,1.12,0,0,0,.41.51,1.06,1.06,0,0,0,.61.17,1,1,0,0,0,.61-.17,1.08,1.08,0,0,0,.42-.51,2.12,2.12,0,0,0,.15-.85,2,2,0,0,0-.15-.82,1.16,1.16,0,0,0-.42-.52A1.05,1.05,0,0,0,104.28,104.87Z" transform="translate(-5.47 -4.88)"/><path class="cls-10" d="M109,105.79a.92.92,0,0,0-.22-.67.83.83,0,0,0-.64-.24,1,1,0,0,0-.56.16,1,1,0,0,0-.38.42,1.68,1.68,0,0,0-.13.72v2h-.44v-3.63h.42v.58a1.33,1.33,0,0,1,.48-.49,1.39,1.39,0,0,1,.67-.17,1.27,1.27,0,0,1,.92.32,1.24,1.24,0,0,1,.32.91v2.48H109Z" transform="translate(-5.47 -4.88)"/><g class="cls-11"><path class="cls-12" d="M59,88.59a24.65,24.65,0,0,1,9.14,3.17,25.32,25.32,0,0,1,10,11.21" transform="translate(-5.47 -4.88)"/></g><path class="cls-10" d="M408.16,105.23a1.15,1.15,0,0,1,.57.14.89.89,0,0,1,.39.4,1.54,1.54,0,0,1,.13.67v2.5h-.42v-2.43a1,1,0,0,0-.19-.69.71.71,0,0,0-.57-.2.83.83,0,0,0-.72.32,1.62,1.62,0,0,0-.24,1v2h-.43v-2.35a1.58,1.58,0,0,0-.08-.59.55.55,0,0,0-.23-.3.9.9,0,0,0-.39-.08.94.94,0,0,0-.55.17,1.12,1.12,0,0,0-.35.49,2.19,2.19,0,0,0-.11.7v2h-.43v-3.62H405v.52h0a1.25,1.25,0,0,1,1.09-.61,1.11,1.11,0,0,1,.6.15,1,1,0,0,1,.37.45,1.44,1.44,0,0,1,.51-.46A1.41,1.41,0,0,1,408.16,105.23Z" transform="translate(-5.47 -4.88)"/><path class="cls-10" d="M410,107.13a2.38,2.38,0,0,1,.21-1,1.42,1.42,0,0,1,.57-.64,1.64,1.64,0,0,1,.84-.22,1.69,1.69,0,0,1,.86.22,1.42,1.42,0,0,1,.57.64,2.78,2.78,0,0,1,0,2.07,1.45,1.45,0,0,1-.57.65,1.69,1.69,0,0,1-.86.22,1.64,1.64,0,0,1-.84-.22,1.48,1.48,0,0,1-.58-.65A2.49,2.49,0,0,1,410,107.13Zm1.62-1.52a1,1,0,0,0-.6.17,1.06,1.06,0,0,0-.41.51,2.1,2.1,0,0,0-.15.84,2.32,2.32,0,0,0,.14.85,1.24,1.24,0,0,0,.41.51,1.26,1.26,0,0,0,1.23,0,1.21,1.21,0,0,0,.41-.52,2.12,2.12,0,0,0,.15-.85,2,2,0,0,0-.15-.82,1.21,1.21,0,0,0-.41-.52A1.09,1.09,0,0,0,411.59,105.61Z" transform="translate(-5.47 -4.88)"/><path class="cls-10" d="M416.21,105.32h.46l-1.42,3.62h-.39l-1.43-3.62h.46l1.16,3.1Z" transform="translate(-5.47 -4.88)"/><path class="cls-10" d="M420,108.94h-.46a1.61,1.61,0,0,1-.11-.54h0a1.57,1.57,0,0,1-.56.48,1.51,1.51,0,0,1-.73.16,1.35,1.35,0,0,1-.59-.13,1,1,0,0,1-.38-.36A1,1,0,0,1,417,108a1,1,0,0,1,.14-.54,1,1,0,0,1,.42-.36,2.7,2.7,0,0,1,.78-.22,5.77,5.77,0,0,0,1-.23v-.13a1.54,1.54,0,0,0-.08-.54.56.56,0,0,0-.27-.3,1.39,1.39,0,0,0-.56-.09.85.85,0,0,0-.94.71l-.44-.06a1.27,1.27,0,0,1,.47-.77,1.59,1.59,0,0,1,.94-.26,1.94,1.94,0,0,1,.74.12.82.82,0,0,1,.43.39,1.48,1.48,0,0,1,.15.72v1.36a5.73,5.73,0,0,0,0,.69A1.41,1.41,0,0,0,420,108.94Zm-1.68-1.66a1.48,1.48,0,0,0-.65.26.62.62,0,0,0-.19.48.59.59,0,0,0,.2.48.85.85,0,0,0,.56.17,1.17,1.17,0,0,0,.3,0,1.24,1.24,0,0,0,.33-.15.88.88,0,0,0,.25-.2,1,1,0,0,0,.17-.26.66.66,0,0,0,.08-.28,3.54,3.54,0,0,0,0-.52V107a2.19,2.19,0,0,1-.37.11C418.81,107.18,418.58,107.23,418.29,107.28Z" transform="translate(-5.47 -4.88)"/><path class="cls-10" d="M421.25,105.9h0a1.62,1.62,0,0,1,.54-.51,1.42,1.42,0,0,1,.65-.16,1.33,1.33,0,0,1,.82.25,1.49,1.49,0,0,1,.52.66,2.61,2.61,0,0,1,.17,1,2.57,2.57,0,0,1-.18,1,1.5,1.5,0,0,1-.52.68,1.35,1.35,0,0,1-.8.24,1.41,1.41,0,0,1-.69-.16,1.44,1.44,0,0,1-.51-.48h0v.55h-.42v-5h.42Zm1.18-.29a1,1,0,0,0-.66.21,1.28,1.28,0,0,0-.4.56,2.53,2.53,0,0,0-.12.8,2,2,0,0,0,.14.8,1.14,1.14,0,0,0,.41.5,1,1,0,0,0,.61.17.86.86,0,0,0,.56-.19,1.26,1.26,0,0,0,.4-.54,2.05,2.05,0,0,0,.15-.81,2.14,2.14,0,0,0-.14-.79,1.19,1.19,0,0,0-.39-.53A.91.91,0,0,0,422.43,105.61Z" transform="translate(-5.47 -4.88)"/><path class="cls-10" d="M424.69,108.94v-5h.45v5Z" transform="translate(-5.47 -4.88)"/><path class="cls-10" d="M427.53,108.65a1,1,0,0,0,.63-.19,1.07,1.07,0,0,0,.39-.55l.43.07a1.47,1.47,0,0,1-.56.78,1.54,1.54,0,0,1-.92.27,1.66,1.66,0,0,1-.87-.23,1.49,1.49,0,0,1-.56-.65,2.25,2.25,0,0,1-.2-1,2.34,2.34,0,0,1,.2-1,1.46,1.46,0,0,1,.56-.66,1.54,1.54,0,0,1,.86-.24,1.39,1.39,0,0,1,1.41,1,3,3,0,0,1,.16,1h-2.74a2,2,0,0,0,.17.78,1.13,1.13,0,0,0,.42.49A1.07,1.07,0,0,0,427.53,108.65Zm0-3.05a1.07,1.07,0,0,0-.56.15,1.09,1.09,0,0,0-.39.43,1.46,1.46,0,0,0-.19.66h2.27a1.59,1.59,0,0,0-.35-.92A1,1,0,0,0,427.48,105.6Z" transform="translate(-5.47 -4.88)"/><path class="cls-10" d="M432.07,108.41h0v1.92h-.44v-5H432v.59h0a1.4,1.4,0,0,1,1.23-.68,1.32,1.32,0,0,1,.79.24,1.64,1.64,0,0,1,.51.67,2.42,2.42,0,0,1,.17,1,2.64,2.64,0,0,1-.18,1,1.5,1.5,0,0,1-.52.68,1.33,1.33,0,0,1-.8.24,1.45,1.45,0,0,1-.68-.15A1.3,1.3,0,0,1,432.07,108.41Zm1.15-2.8a1,1,0,0,0-.65.2,1.17,1.17,0,0,0-.4.56,2.31,2.31,0,0,0-.13.82,2.1,2.1,0,0,0,.14.79,1.15,1.15,0,0,0,.41.5,1,1,0,0,0,.61.17,1,1,0,0,0,.58-.18,1.22,1.22,0,0,0,.39-.54,2.58,2.58,0,0,0,.13-.83,2.27,2.27,0,0,0-.13-.78,1.19,1.19,0,0,0-.38-.53A1,1,0,0,0,433.22,105.61Z" transform="translate(-5.47 -4.88)"/><path class="cls-10" d="M435.49,104.54v-.61h.44v.61Zm0,4.4v-3.62h.44v3.62Z" transform="translate(-5.47 -4.88)"/><path class="cls-10" d="M438,105.61a1.07,1.07,0,0,0-.41.07.65.65,0,0,0-.28.2.48.48,0,0,0-.1.31.57.57,0,0,0,.08.31.6.6,0,0,0,.29.2,2.28,2.28,0,0,0,.57.15,3.13,3.13,0,0,1,.74.22.94.94,0,0,1,.41.34.92.92,0,0,1,.13.51,1,1,0,0,1-.17.57,1.07,1.07,0,0,1-.47.39,1.6,1.6,0,0,1-.7.15,1.52,1.52,0,0,1-.94-.27,1.19,1.19,0,0,1-.46-.78l.43-.07a.88.88,0,0,0,1,.74,1.13,1.13,0,0,0,.47-.08.65.65,0,0,0,.31-.25A.61.61,0,0,0,439,108a.56.56,0,0,0-.11-.35.67.67,0,0,0-.33-.21,3.63,3.63,0,0,0-.62-.16,1.72,1.72,0,0,1-.86-.34.84.84,0,0,1-.28-.68.9.9,0,0,1,.15-.51,1,1,0,0,1,.43-.36,1.59,1.59,0,0,1,.64-.13,1.56,1.56,0,0,1,.87.23,1.07,1.07,0,0,1,.44.66l-.43.06a.66.66,0,0,0-.29-.43A1.14,1.14,0,0,0,438,105.61Z" transform="translate(-5.47 -4.88)"/><path class="cls-10" d="M441.47,105.32v.35h-.68v2.38a1,1,0,0,0,0,.35.23.23,0,0,0,.12.16.47.47,0,0,0,.23,0,1.06,1.06,0,0,0,.31,0l.06.38a2.93,2.93,0,0,1-.44,0,.92.92,0,0,1-.49-.1.46.46,0,0,1-.22-.3,2.61,2.61,0,0,1,0-.56v-2.35h-.52v-.35h.52v-.87l.44-.32v1.19Z" transform="translate(-5.47 -4.88)"/><path class="cls-10" d="M441.93,107.13a2.54,2.54,0,0,1,.2-1,1.5,1.5,0,0,1,.58-.64,1.64,1.64,0,0,1,.84-.22,1.69,1.69,0,0,1,.86.22,1.48,1.48,0,0,1,.57.64,2.78,2.78,0,0,1,0,2.07,1.45,1.45,0,0,1-.57.65,1.77,1.77,0,0,1-1.71,0,1.52,1.52,0,0,1-.57-.65A2.49,2.49,0,0,1,441.93,107.13Zm1.62-1.52a1,1,0,0,0-.6.17,1.06,1.06,0,0,0-.41.51,1.94,1.94,0,0,0-.16.84,2.12,2.12,0,0,0,.15.85,1.24,1.24,0,0,0,.41.51,1.13,1.13,0,0,0,.61.16,1.11,1.11,0,0,0,.61-.16,1.16,1.16,0,0,0,.42-.52,2.12,2.12,0,0,0,.15-.85,2,2,0,0,0-.15-.82,1.21,1.21,0,0,0-.41-.52A1.09,1.09,0,0,0,443.55,105.61Z" transform="translate(-5.47 -4.88)"/><path class="cls-10" d="M448.28,106.52a.93.93,0,0,0-.22-.67.82.82,0,0,0-.64-.23,1.07,1.07,0,0,0-.56.15,1.18,1.18,0,0,0-.38.42,1.73,1.73,0,0,0-.12.72v2h-.44v-3.62h.41v.57a1.23,1.23,0,0,1,.48-.48,1.29,1.29,0,0,1,.67-.18,1.27,1.27,0,0,1,.92.32,1.22,1.22,0,0,1,.33.91v2.48h-.45Z" transform="translate(-5.47 -4.88)"/><g class="cls-11"><path class="cls-12" d="M398.24,89.32a24.64,24.64,0,0,1,9.14,3.18,25.25,25.25,0,0,1,10,11.2" transform="translate(-5.47 -4.88)"/></g><path class="cls-10" d="M352.33,10.75v-.61h.44v.61Zm0,4.4V11.52h.44v3.63Z" transform="translate(-5.47 -4.88)"/><path class="cls-10" d="M356.09,12.73a.92.92,0,0,0-.22-.67.83.83,0,0,0-.64-.24,1,1,0,0,0-.56.16,1,1,0,0,0-.38.42,1.73,1.73,0,0,0-.12.72v2h-.45V11.52h.42v.58a1.33,1.33,0,0,1,.48-.49,1.39,1.39,0,0,1,.67-.17,1.27,1.27,0,0,1,.92.32,1.21,1.21,0,0,1,.33.91v2.48h-.45Z" transform="translate(-5.47 -4.88)"/><path class="cls-10" d="M358.57,11.81a1.12,1.12,0,0,0-.42.08.58.58,0,0,0-.28.2.55.55,0,0,0-.1.31.52.52,0,0,0,.09.31.56.56,0,0,0,.28.2,2.56,2.56,0,0,0,.57.15,3.23,3.23,0,0,1,.75.22.91.91,0,0,1,.4.34.92.92,0,0,1,.13.51,1,1,0,0,1-.17.57,1.14,1.14,0,0,1-.47.39,1.52,1.52,0,0,1-.69.15,1.55,1.55,0,0,1-1-.27,1.18,1.18,0,0,1-.45-.78l.43-.07a.87.87,0,0,0,1,.74,1.38,1.38,0,0,0,.48-.08.68.68,0,0,0,.3-.25.54.54,0,0,0,.11-.35.56.56,0,0,0-.1-.35.67.67,0,0,0-.33-.21,3.54,3.54,0,0,0-.63-.16,1.68,1.68,0,0,1-.85-.34.85.85,0,0,1-.29-.68.84.84,0,0,1,.16-.51,1.06,1.06,0,0,1,.42-.36,1.48,1.48,0,0,1,.65-.13,1.51,1.51,0,0,1,.86.23,1,1,0,0,1,.45.65l-.43.06a.66.66,0,0,0-.29-.42A1.05,1.05,0,0,0,358.57,11.81Z" transform="translate(-5.47 -4.88)"/><path class="cls-10" d="M362,14.85a1,1,0,0,0,.8-.34,1.43,1.43,0,0,0,.29-1v-2h.44v3.63h-.42v-.58a1.28,1.28,0,0,1-.49.49,1.26,1.26,0,0,1-.66.18,1.22,1.22,0,0,1-.92-.33,1.24,1.24,0,0,1-.32-.91V11.52h.44V14a.93.93,0,0,0,.21.66A.79.79,0,0,0,362,14.85Z" transform="translate(-5.47 -4.88)"/><path class="cls-10" d="M364.5,15.15v-5h.44v5Z" transform="translate(-5.47 -4.88)"/><path class="cls-10" d="M368.73,15.15h-.45a1.44,1.44,0,0,1-.12-.55h0a1.8,1.8,0,0,1-.56.48,1.64,1.64,0,0,1-.73.16,1.31,1.31,0,0,1-.58-.13,1,1,0,0,1-.39-.36,1,1,0,0,1-.14-.52,1,1,0,0,1,.14-.54,1,1,0,0,1,.42-.36,2.7,2.7,0,0,1,.78-.22,5.57,5.57,0,0,0,1-.23v-.13a1.54,1.54,0,0,0-.08-.54.56.56,0,0,0-.27-.3,1.37,1.37,0,0,0-.56-.1.85.85,0,0,0-.94.71l-.43-.06a1.19,1.19,0,0,1,.46-.76,1.59,1.59,0,0,1,.94-.26,1.94,1.94,0,0,1,.74.12.82.82,0,0,1,.43.39,1.48,1.48,0,0,1,.15.72V14a5.43,5.43,0,0,0,0,.68A1.71,1.71,0,0,0,368.73,15.15Zm-1.68-1.66a1.48,1.48,0,0,0-.65.26.62.62,0,0,0-.19.48.56.56,0,0,0,.2.47.8.8,0,0,0,.56.18,1.32,1.32,0,0,0,.31-.05,1.87,1.87,0,0,0,.32-.15.88.88,0,0,0,.25-.2,2.08,2.08,0,0,0,.18-.26,1,1,0,0,0,.07-.29,3.36,3.36,0,0,0,0-.52v-.18a3.13,3.13,0,0,1-.37.11C367.57,13.39,367.34,13.44,367.05,13.49Z" transform="translate(-5.47 -4.88)"/><path class="cls-10" d="M370.85,11.52v.36h-.68v2.38a1,1,0,0,0,0,.35.3.3,0,0,0,.12.16.75.75,0,0,0,.24,0,1.18,1.18,0,0,0,.31-.05l.06.38a3.54,3.54,0,0,1-.45,0,.9.9,0,0,1-.48-.1.46.46,0,0,1-.22-.3,2.1,2.1,0,0,1-.06-.57V11.88h-.52v-.36h.52v-.86l.44-.32v1.18Z" transform="translate(-5.47 -4.88)"/><path class="cls-10" d="M371.58,10.75v-.61H372v.61Zm0,4.4V11.52H372v3.63Z" transform="translate(-5.47 -4.88)"/><path class="cls-10" d="M375.34,12.73a.92.92,0,0,0-.22-.67.83.83,0,0,0-.64-.24,1,1,0,0,0-.56.16,1,1,0,0,0-.38.42,1.71,1.71,0,0,0-.13.72v2H373V11.52h.42v.58a1.33,1.33,0,0,1,.48-.49,1.36,1.36,0,0,1,.67-.17,1.27,1.27,0,0,1,.92.32,1.24,1.24,0,0,1,.32.91v2.48h-.44Z" transform="translate(-5.47 -4.88)"/><path class="cls-10" d="M379.62,11.52v3.35a2,2,0,0,1-.38,1.31,1.51,1.51,0,0,1-1.2.44,1.55,1.55,0,0,1-.93-.26,1.05,1.05,0,0,1-.4-.74l.43.06a.66.66,0,0,0,.29.43,1.17,1.17,0,0,0,.61.14,1.28,1.28,0,0,0,.67-.15.82.82,0,0,0,.36-.48,2.83,2.83,0,0,0,.11-.87v-.18h0a1.28,1.28,0,0,1-1.13.62,1.5,1.5,0,0,1-.81-.23,1.61,1.61,0,0,1-.54-.66,2.62,2.62,0,0,1,0-2,1.55,1.55,0,0,1,.55-.66,1.37,1.37,0,0,1,.8-.24,1.3,1.3,0,0,1,1.14.63h0v-.55Zm-1.56.29a.93.93,0,0,0-.59.19,1.25,1.25,0,0,0-.38.53,2.13,2.13,0,0,0-.13.78,2.2,2.2,0,0,0,.13.8,1.36,1.36,0,0,0,.39.53,1,1,0,0,0,.59.18,1,1,0,0,0,.61-.18,1.19,1.19,0,0,0,.39-.53,2,2,0,0,0,.14-.8,1.92,1.92,0,0,0-.14-.79,1.06,1.06,0,0,0-.4-.52A1,1,0,0,0,378.06,11.81Z" transform="translate(-5.47 -4.88)"/><path class="cls-10" d="M383.37,14.62l.82-3.1h.4l.83,3.1h0l.92-3.1h.44l-1.17,3.63h-.43l-.79-3h0l-.78,3h-.44L382,11.52h.45l.92,3.1Z" transform="translate(-5.47 -4.88)"/><path class="cls-10" d="M390.1,15.15h-.46a1.67,1.67,0,0,1-.11-.55h0a1.8,1.8,0,0,1-.56.48,1.64,1.64,0,0,1-.73.16,1.35,1.35,0,0,1-.59-.13,1,1,0,0,1-.52-.88,1,1,0,0,1,.14-.54,1,1,0,0,1,.42-.36,2.7,2.7,0,0,1,.78-.22,5.77,5.77,0,0,0,1-.23v-.13a1.54,1.54,0,0,0-.08-.54.56.56,0,0,0-.27-.3,1.37,1.37,0,0,0-.56-.1.85.85,0,0,0-.94.71l-.44-.06a1.25,1.25,0,0,1,.47-.76,1.59,1.59,0,0,1,.94-.26,1.94,1.94,0,0,1,.74.12.82.82,0,0,1,.43.39,1.48,1.48,0,0,1,.15.72V14a5.43,5.43,0,0,0,0,.68A1.71,1.71,0,0,0,390.1,15.15Zm-1.68-1.66a1.48,1.48,0,0,0-.65.26.62.62,0,0,0-.19.48.56.56,0,0,0,.2.47.8.8,0,0,0,.56.18,1.17,1.17,0,0,0,.3-.05,1.66,1.66,0,0,0,.33-.15.88.88,0,0,0,.25-.2,1.25,1.25,0,0,0,.17-.26.72.72,0,0,0,.08-.29,3.36,3.36,0,0,0,0-.52v-.18a3.13,3.13,0,0,1-.37.11C388.94,13.39,388.71,13.44,388.42,13.49Z" transform="translate(-5.47 -4.88)"/><path class="cls-10" d="M391,15.15v-5h.44v5Z" transform="translate(-5.47 -4.88)"/><path class="cls-10" d="M392.35,15.15v-5h.44v5Z" transform="translate(-5.47 -4.88)"/><path class="cls-10" d="M394.84,11.81a1.08,1.08,0,0,0-.42.08.58.58,0,0,0-.28.2.48.48,0,0,0-.1.31.59.59,0,0,0,.08.31.65.65,0,0,0,.29.2,2.56,2.56,0,0,0,.57.15,3,3,0,0,1,.74.22.89.89,0,0,1,.41.34.92.92,0,0,1,.13.51,1,1,0,0,1-.17.57,1.14,1.14,0,0,1-.47.39A1.74,1.74,0,0,1,394,15a1.23,1.23,0,0,1-.46-.78l.44-.07a.86.86,0,0,0,1,.74,1.42,1.42,0,0,0,.48-.08.68.68,0,0,0,.3-.25.54.54,0,0,0,.11-.35.56.56,0,0,0-.1-.35.76.76,0,0,0-.34-.21,3.39,3.39,0,0,0-.62-.16,1.68,1.68,0,0,1-.85-.34.85.85,0,0,1-.29-.68.9.9,0,0,1,.15-.51,1.09,1.09,0,0,1,.43-.36,1.48,1.48,0,0,1,.65-.13,1.51,1.51,0,0,1,.86.23,1.08,1.08,0,0,1,.45.65l-.43.06a.7.7,0,0,0-.29-.42A1.05,1.05,0,0,0,394.84,11.81Z" transform="translate(-5.47 -4.88)"/><g class="cls-11"><path class="cls-12" d="M412.79,35.93a32.23,32.23,0,0,0-3.35-12.65,22.69,22.69,0,0,0-10.24-10.4" transform="translate(-5.47 -4.88)"/></g><path class="cls-10" d="M61.43,125l-.88-2.27H57.32L56.48,125h-.71l2.73-7.16h.79l2.9,7.16Zm-3.07-5.07-.84,2.23h2.81l-.87-2.2c-.19-.48-.38-1-.56-1.6h0c-.06.2-.13.44-.23.73S58.46,119.63,58.36,119.91Z" transform="translate(-5.47 -4.88)"/><path class="cls-10" d="M173.85,119.63a1.68,1.68,0,0,1-1,1.58,2,2,0,0,1,1.06.68,1.87,1.87,0,0,1,.31,1.07,2,2,0,0,1-.27,1,1.82,1.82,0,0,1-.78.72A2.39,2.39,0,0,1,172,125h-2.85v-7.16h2.55a3,3,0,0,1,1.18.21,1.65,1.65,0,0,1,.74.63A1.8,1.8,0,0,1,173.85,119.63Zm-.69,0a1.11,1.11,0,0,0-.38-.92,1.88,1.88,0,0,0-1.22-.31H169.8V121h2a1.72,1.72,0,0,0,.74-.16,1.21,1.21,0,0,0,.49-.46A1.41,1.41,0,0,0,173.16,119.66Zm.32,3.3a1.38,1.38,0,0,0-.19-.74,1.26,1.26,0,0,0-.54-.48,1.8,1.8,0,0,0-.82-.17H169.8v2.8h2.1a1.66,1.66,0,0,0,1.17-.38A1.33,1.33,0,0,0,173.48,123Z" transform="translate(-5.47 -4.88)"/><path class="cls-10" d="M285.1,118.28a2.33,2.33,0,0,0-1.32.39,2.5,2.5,0,0,0-.89,1.08,3.86,3.86,0,0,0-.32,1.59,4.47,4.47,0,0,0,.29,1.66,2.58,2.58,0,0,0,.86,1.12,2.34,2.34,0,0,0,1.35.4,2.27,2.27,0,0,0,1.45-.47,2.4,2.4,0,0,0,.83-1.34l.66.16a3.12,3.12,0,0,1-.61,1.22,2.62,2.62,0,0,1-1,.75,3.2,3.2,0,0,1-1.29.26,3.16,3.16,0,0,1-1.74-.46,2.89,2.89,0,0,1-1.12-1.29,4.76,4.76,0,0,1-.39-2,4.29,4.29,0,0,1,.41-1.91,3.07,3.07,0,0,1,1.15-1.29,3.2,3.2,0,0,1,1.7-.45,3,3,0,0,1,1.75.49,2.68,2.68,0,0,1,1,1.42l-.66.17a2.14,2.14,0,0,0-.79-1.12A2.2,2.2,0,0,0,285.1,118.28Z" transform="translate(-5.47 -4.88)"/><path class="cls-10" d="M401.28,121.33a4.84,4.84,0,0,1-.38,2,2.67,2.67,0,0,1-1.07,1.22,3.25,3.25,0,0,1-1.65.4h-2.52v-7.16h2.51a3.12,3.12,0,0,1,1.69.43,2.72,2.72,0,0,1,1.06,1.23A4.42,4.42,0,0,1,401.28,121.33Zm-.71,0a3.37,3.37,0,0,0-.6-2.13,2.28,2.28,0,0,0-1.88-.75h-1.76v5.94h1.76a2.79,2.79,0,0,0,1.4-.32,1.88,1.88,0,0,0,.81-1A4.73,4.73,0,0,0,400.57,121.31Z" transform="translate(-5.47 -4.88)"/></svg>