<svg id="Layer_1" data-name="Layer 1" xmlns="http://www.w3.org/2000/svg" xmlns:xlink="http://www.w3.org/1999/xlink" viewBox="0 0 446.33 122.24"><defs><style>.cls-1,.cls-22,.cls-3,.cls-5,.cls-6,.cls-7,.cls-8,.cls-9{fill:none;}.cls-2{fill:#97d6d4;}.cls-3,.cls-5,.cls-6,.cls-8,.cls-9{stroke:#231f20;}.cls-22,.cls-3,.cls-5,.cls-6,.cls-7,.cls-8,.cls-9{stroke-miterlimit:10;}.cls-3{stroke-width:0.25px;}.cls-4{fill:#bcbec0;}.cls-22,.cls-5,.cls-6{stroke-width:0.5px;}.cls-6{stroke-dasharray:5.3 3.54;}.cls-7{stroke:#00675c;stroke-width:4px;}.cls-8{stroke-width:0.75px;}.cls-9{stroke-width:6px;}.cls-10{font-size:7.53px;}.cls-10,.cls-17,.cls-28{fill:#231f20;font-family:ArialNova-Light, Arial Nova;}.cls-11{letter-spacing:-0.01em;}.cls-12{letter-spacing:-0.01em;}.cls-13{letter-spacing:0em;}.cls-14{letter-spacing:-0.01em;}.cls-15{letter-spacing:0.03em;}.cls-16{letter-spacing:-0.01em;}.cls-17{font-size:7px;}.cls-18{letter-spacing:-0.01em;}.cls-19{letter-spacing:-0.01em;}.cls-20{letter-spacing:-0.01em;}.cls-21{clip-path:url(#clip-path);}.cls-22{stroke:#fff;stroke-linecap:round;}.cls-23{letter-spacing:-0.01em;}.cls-24{letter-spacing:-0.01em;}.cls-25{letter-spacing:-0.01em;}.cls-26{letter-spacing:-0.01em;}.cls-27{letter-spacing:-0.01em;}.cls-28{font-size:10px;}</style><clipPath id="clip-path" transform="translate(-5.47 -4.88)"><rect class="cls-1" width="456.88" height="130.94"/></clipPath></defs><title>foursystems</title><rect class="cls-2" x="0.13" y="0.13" width="106.75" height="106.75"/><rect class="cls-3" x="0.13" y="0.13" width="106.75" height="106.75"/><rect class="cls-4" x="31.05" y="31.05" width="44.9" height="44.9"/><rect class="cls-3" x="31.05" y="31.05" width="44.9" height="44.9"/><rect class="cls-2" x="112.63" y="0.13" width="106.75" height="106.75"/><rect class="cls-3" x="112.63" y="0.13" width="106.75" height="106.75"/><rect class="cls-4" x="143.56" y="31.05" width="44.9" height="44.9"/><rect class="cls-5" x="143.56" y="31.05" width="44.9" height="44.9"/><rect class="cls-2" x="226.04" y="0.13" width="106.75" height="106.75"/><rect class="cls-3" x="226.04" y="0.13" width="106.75" height="106.75"/><rect class="cls-4" x="256.97" y="31.05" width="44.9" height="44.9"/><polyline class="cls-5" points="301.87 72.95 301.87 75.95 298.87 75.95"/><line class="cls-6" x1="295.33" y1="75.95" x2="261.74" y2="75.95"/><polyline class="cls-5" points="259.97 75.95 256.97 75.95 256.97 72.95"/><line class="cls-6" x1="256.97" y1="69.41" x2="256.97" y2="35.82"/><polyline class="cls-5" points="256.97 34.05 256.97 31.05 259.97 31.05"/><line class="cls-6" x1="263.5" y1="31.05" x2="297.1" y2="31.05"/><polyline class="cls-5" points="298.87 31.05 301.87 31.05 301.87 34.05"/><line class="cls-6" x1="301.86" y1="37.59" x2="301.86" y2="71.18"/><rect class="cls-2" x="339.45" y="0.13" width="106.75" height="106.75"/><rect class="cls-3" x="339.45" y="0.13" width="106.75" height="106.75"/><rect class="cls-4" x="370.38" y="31.05" width="44.9" height="44.9"/><rect class="cls-3" x="370.38" y="31.05" width="44.9" height="44.9"/><line class="cls-7" x1="31.05" y1="74.27" x2="75.95" y2="74.27"/><line class="cls-7" x1="53.5" y1="76.15" x2="53.5" y2="97.33"/><polyline class="cls-8" points="73.6 86.89 75.95 86.89 75.95 31.05 53.5 31.05 31.05 31.05 31.05 86.89 33.4 86.89"/><line class="cls-7" x1="370.38" y1="74.27" x2="415.27" y2="74.27"/><line class="cls-7" x1="392.83" y1="76.15" x2="392.83" y2="97.33"/><polyline class="cls-9" points="415.27 86.89 415.27 31.05 392.82 31.05 370.38 31.05 370.38 86.89"/><text class="cls-10" transform="translate(33.35 37.95)">s<tspan class="cls-11" x="3.53" y="0">y</tspan><tspan x="7.01" y="0">s</tspan><tspan class="cls-12" x="10.55" y="0">t</tspan><tspan class="cls-13" x="12.69" y="0">em</tspan></text><text class="cls-10" transform="translate(2.56 7.77)"><tspan class="cls-14">r</tspan><tspan x="2.44" y="0">ese</tspan><tspan class="cls-15" x="13.93" y="0">r</tspan><tspan class="cls-16" x="16.7" y="0">v</tspan><tspan class="cls-13" x="20.17" y="0">oir</tspan></text><text class="cls-17" transform="translate(59.33 103.33)">m<tspan class="cls-18" x="5.65" y="0">o</tspan><tspan class="cls-19" x="9.32" y="0">v</tspan><tspan x="12.59" y="0">able pis</tspan><tspan class="cls-20" x="35.62" y="0">t</tspan><tspan x="37.61" y="0">on</tspan></text><g class="cls-21"><path class="cls-22" d="M59,88.59a24.65,24.65,0,0,1,9.14,3.17,25.32,25.32,0,0,1,10,11.21" transform="translate(-5.47 -4.88)"/></g><text class="cls-17" transform="translate(398.59 104.07)">m<tspan class="cls-23" x="5.65" y="0">o</tspan><tspan class="cls-24" x="9.32" y="0">v</tspan><tspan x="12.59" y="0">able pis</tspan><tspan class="cls-25" x="35.62" y="0">t</tspan><tspan x="37.61" y="0">on</tspan></text><g class="cls-21"><path class="cls-22" d="M398.24,89.32a24.64,24.64,0,0,1,9.14,3.18,25.25,25.25,0,0,1,10,11.2" transform="translate(-5.47 -4.88)"/></g><text class="cls-17" transform="translate(346.38 10.27)">insul<tspan class="cls-26" x="13.56" y="0">a</tspan><tspan x="17.21" y="0">ting </tspan><tspan class="cls-27" x="30.07" y="0">w</tspan><tspan x="34.93" y="0">alls</tspan></text><g class="cls-21"><path class="cls-22" d="M412.79,35.93a32.23,32.23,0,0,0-3.35-12.65,22.69,22.69,0,0,0-10.24-10.4" transform="translate(-5.47 -4.88)"/></g><text class="cls-28" transform="translate(50.27 120.1)">A</text><text class="cls-28" transform="translate(162.8 120.1)">B</text><text class="cls-28" transform="translate(275.86 120.1)">C</text><text class="cls-28" transform="translate(389.33 120.1)">D</text></svg>