<svg id="Layer_1" data-name="Layer 1" xmlns="http://www.w3.org/2000/svg" viewBox="0 0 340.16 93.05"><defs><style>.cls-1{fill:#fdd3b4;}.cls-2,.cls-7{fill:#fff;}.cls-3{fill:#4971b7;}.cls-4,.cls-8,.cls-9{fill:none;}.cls-4,.cls-7,.cls-8,.cls-9{stroke:#231f20;stroke-miterlimit:10;stroke-width:0.5px;}.cls-5,.cls-6{font-size:6.82px;font-family:ArialMT, Arial;}.cls-10,.cls-5,.cls-6{fill:#231f20;}.cls-6{letter-spacing:-0.06em;}.cls-8{stroke-dasharray:2.03 2.03;}.cls-9{stroke-dasharray:2.02 2.02;}</style></defs><title>foursystems</title><rect class="cls-1" width="81.12" height="80.6"/><rect class="cls-2" x="24.34" y="17.21" width="32.45" height="29.01"/><rect class="cls-3" x="24.34" y="46.23" width="32.45" height="3.22"/><polyline class="cls-4" points="55.16 55.9 56.78 55.9 56.78 17.21 24.34 17.21 24.34 55.9 25.96 55.9"/><rect class="cls-3" x="31.15" y="55.63" width="18.83" height="3.24" transform="translate(-16.69 97.81) rotate(-90)"/><text class="cls-5" transform="translate(2.29 6.96) scale(1.01 1)">reservoir</text><text class="cls-5" transform="translate(26.61 24.58) scale(1.01 1)">system</text><text class="cls-5" transform="translate(17.46 77.47) scale(1.01 1)">movable piston</text><line class="cls-4" x1="40.56" y1="53.02" x2="31.66" y2="71.5"/><text class="cls-6" transform="translate(34.01 90.83) scale(1.01 1)">A</text><rect class="cls-1" x="86.35" width="81.12" height="80.6"/><rect class="cls-7" x="110.68" y="17.21" width="32.45" height="32.24"/><text class="cls-5" transform="translate(124.62 90.83) scale(1.01 1)">B</text><rect class="cls-1" x="172.69" width="81.12" height="80.6"/><rect class="cls-2" x="197.03" y="17.21" width="32.45" height="32.24"/><polyline class="cls-4" points="229.48 48.45 229.48 49.45 228.48 49.45"/><line class="cls-8" x1="226.45" y1="49.45" x2="199.04" y2="49.45"/><polyline class="cls-4" points="198.03 49.45 197.03 49.45 197.03 48.45"/><line class="cls-9" x1="197.03" y1="46.44" x2="197.03" y2="19.22"/><polyline class="cls-4" points="197.03 18.21 197.03 17.21 198.03 17.21"/><line class="cls-8" x1="200.06" y1="17.21" x2="227.46" y2="17.21"/><polyline class="cls-4" points="228.48 17.21 229.48 17.21 229.48 18.21"/><line class="cls-9" x1="229.48" y1="20.23" x2="229.48" y2="47.44"/><text class="cls-5" transform="translate(210.77 90.83) scale(1.01 1)">C</text><rect class="cls-1" x="259.04" width="81.12" height="80.6"/><rect class="cls-2" x="283.37" y="17.21" width="32.45" height="29.01"/><rect class="cls-3" x="283.37" y="46.23" width="32.45" height="3.22"/><rect class="cls-3" x="290.18" y="55.63" width="18.83" height="3.24" transform="translate(242.34 356.85) rotate(-90)"/><path class="cls-10" d="M320.4,12.67H278.79V55.9h4.58V17.22h32.45V55.9h4.58"/><text class="cls-5" transform="translate(276.5 77.47) scale(1.01 1)">movable piston</text><line class="cls-4" x1="299.6" y1="53.18" x2="290.7" y2="71.66"/><text class="cls-5" transform="translate(261.9 8.1) scale(1.01 1)">insulating walls</text><line class="cls-4" x1="284.99" y1="9.52" x2="293.03" y2="14.92"/><text class="cls-5" transform="translate(298.74 90.83) scale(1.01 1)">D</text></svg>